{"glyphs":{"0":{"ha":890,"x_min":-14,"x_max":809,"o":"m 87 488 q 180 193 88 315 q 398 74 271 74 q 616 193 526 74 q 708 488 709 315 q 616 782 709 660 q 398 901 526 901 q 180 782 271 901 q 87 488 88 660 m -14 488 q 106 850 -13 700 q 398 1002 227 1002 q 690 850 570 1002 q 808 488 809 700 q 690 125 809 275 q 398 -27 570 -27 q 106 125 227 -27 q -14 488 -13 275 z "},"1":{"ha":239,"x_min":-14,"x_max":157,"o":"m 157 986 l 157 -13 l 53 -13 l 53 882 l -14 882 l -14 987 l 156 987 l 156 986 l 157 986 z "},"2":{"ha":814,"x_min":-32,"x_max":720,"o":"m -32 -11 l 462 391 q 621 634 618 510 q 546 836 623 758 q 356 913 467 913 q 186 852 259 913 q 93 691 111 791 l -4 692 q 118 920 17 833 q 356 1009 221 1009 q 612 903 507 1009 q 715 630 720 798 q 557 342 710 463 l 243 87 l 702 86 l 702 -12 l -32 -11 z "},"3":{"ha":791,"x_min":-16,"x_max":708,"o":"m 600 588 q 708 335 708 484 q 601 81 708 186 q 345 -24 495 -24 q 106 65 210 -24 q -16 294 5 153 l 81 294 q 174 134 100 194 q 345 73 248 73 q 534 149 456 73 q 612 335 612 227 q 563 486 611 418 q 416 613 513 562 l 355 653 l 416 718 q 455 802 455 768 q 423 879 455 847 q 345 911 391 911 q 245 741 226 903 l 148 741 q 138 802 138 776 q 139 817 138 806 q 203 951 145 897 q 345 1007 263 1007 q 490 947 430 1007 q 551 802 551 886 q 505 665 551 712 q 600 588 549 640 z "},"4":{"ha":895,"x_min":-34,"x_max":750,"o":"m 545 785 l 189 433 l 544 433 l 545 785 m 750 434 l 750 343 l 642 343 l 642 -18 l 546 -18 l 546 343 l -34 344 l 643 1014 l 642 434 l 750 434 z "},"5":{"ha":863,"x_min":-18,"x_max":778,"o":"m 363 758 q 659 645 543 758 q 777 372 777 532 q 659 99 778 212 q 375 -14 541 -14 q 128 68 237 -14 q -18 292 22 149 l 85 292 q 197 142 119 197 q 375 87 276 87 q 589 171 500 87 q 677 372 677 255 q 589 574 677 490 q 370 658 500 658 l 370 659 l 160 659 l 160 674 l 160 674 l 160 969 l 160 969 l 160 985 l 496 985 l 496 887 l 258 887 l 258 758 l 363 758 l 363 758 z "},"6":{"ha":933,"x_min":-14,"x_max":852,"o":"m 581 986 l 404 825 q 548 799 444 832 q 732 681 656 765 q 844 375 852 551 q 707 80 836 199 q 400 -31 576 -39 q 105 106 224 -24 q -6 413 -14 237 q 132 708 1 589 l 436 986 l 581 986 m 201 637 q 94 410 100 547 q 180 174 87 273 q 408 67 271 73 q 645 153 545 61 q 751 381 745 245 q 665 618 757 518 q 437 724 574 718 q 201 637 300 730 z "},"7":{"ha":824,"x_min":-14,"x_max":743,"o":"m 743 987 l 683 895 l 214 -14 l 99 -14 l 564 888 l -14 888 l -14 987 l 743 987 z "},"8":{"ha":799,"x_min":-14,"x_max":718,"o":"m 352 70 q 538 146 461 70 q 615 328 615 221 q 538 511 615 435 q 352 586 461 586 q 166 511 243 586 q 90 328 90 435 q 166 146 90 221 q 352 70 243 70 m 353 905 q 275 873 308 905 q 243 797 243 842 q 275 721 243 753 q 353 689 308 689 q 429 721 397 689 q 462 797 462 753 q 430 873 461 842 q 353 905 397 905 m 507 656 q 652 533 589 623 q 718 328 718 441 q 610 73 718 179 q 352 -33 503 -33 q 94 73 201 -33 q -14 328 -14 179 q 94 583 -14 477 q 197 656 147 636 q 144 797 143 703 q 204 944 143 883 q 352 1005 266 1005 q 500 944 439 1005 q 562 797 562 883 q 507 656 562 703 z "},"9":{"ha":932,"x_min":-14,"x_max":851,"o":"m 257 -14 l 434 148 q 290 174 395 140 q 105 291 182 208 q -6 597 -14 422 q 132 892 2 773 q 438 1004 262 1011 q 732 866 613 996 q 844 559 851 736 q 705 264 837 384 l 402 -14 l 257 -14 m 194 825 q 87 597 94 734 q 174 361 81 460 q 401 254 264 260 q 638 340 538 248 q 744 568 738 432 q 658 806 750 705 q 430 911 567 905 q 194 825 294 918 z "},"\u0000":{"ha":68,"x_min":0,"x_max":0,"o":""}," ":{"ha":271,"x_min":0,"x_max":0,"o":""},"!":{"ha":218,"x_min":-14,"x_max":136,"o":"m 108 191 l 12 191 l 12 1194 l 109 1194 l 108 191 m 62 125 q 114 103 92 125 q 136 50 136 81 q 114 -2 136 20 q 62 -24 92 -24 q 8 -2 31 -24 q -14 50 -14 20 q 8 103 -14 81 q 62 125 31 125 z "},"\"":{"ha":315,"x_min":-14,"x_max":233,"o":"m 87 659 l -14 659 l -14 985 l 87 985 l 87 659 m 233 659 l 132 659 l 132 985 l 233 985 l 233 659 z "},"#":{"ha":774,"x_min":-14,"x_max":692,"o":"m 444 604 l 271 604 l 228 426 l 401 426 l 444 604 m 542 604 l 498 426 l 629 426 l 629 332 l 476 332 l 401 20 l 304 20 l 379 332 l 205 332 l 131 20 l 33 20 l 109 332 l -14 332 l -14 426 l 131 426 l 174 604 l 49 604 l 50 699 l 197 699 l 255 942 l 352 942 l 294 699 l 467 699 l 526 942 l 623 942 l 565 699 l 692 699 l 692 604 l 542 604 z "},"$":{"ha":380,"x_min":-6,"x_max":296,"o":"m 193 422 l 193 358 l 96 358 l 96 422 q 39 460 68 430 q -6 567 -6 505 l -6 582 l 86 582 q 103 526 86 543 q 144 509 119 509 q 186 526 168 509 q 203 568 203 543 q 188 606 203 593 q 121 633 172 620 q 40 670 71 647 q -6 777 -5 715 q 39 884 -6 839 q 96 921 68 913 l 96 986 l 193 986 l 193 921 q 252 884 222 913 q 296 777 296 839 l 296 754 l 201 754 q 203 778 203 774 q 186 820 204 803 q 144 838 169 838 q 103 820 120 838 q 85 778 86 803 q 101 738 85 754 q 181 710 132 722 q 263 663 230 697 q 296 567 296 629 q 252 460 296 505 q 193 422 221 430 z "},"%":{"ha":662,"x_min":-23,"x_max":579,"o":"m 171 390 l 68 390 l 382 986 l 484 986 l 171 390 m 436 685 q 537 643 495 685 q 578 543 578 601 q 537 441 579 484 q 436 399 494 399 q 335 441 377 399 q 293 543 294 484 q 335 643 293 601 q 436 685 377 685 m 437 598 q 398 582 414 598 q 382 543 382 566 q 398 505 382 521 q 437 488 414 488 q 476 505 460 488 q 492 543 492 521 q 476 582 492 566 q 437 598 460 598 m 119 960 q 221 919 179 960 q 262 818 262 877 q 220 717 262 759 q 119 675 178 675 q 19 717 61 675 q -23 818 -23 759 q 19 919 -23 877 q 119 960 61 960 m 121 873 q 82 858 98 873 q 66 819 66 842 q 82 780 66 796 q 121 764 98 764 q 159 780 143 764 q 176 819 176 796 q 159 858 176 842 q 121 873 143 873 z "},"&":{"ha":836,"x_min":-14,"x_max":747,"o":"m 194 586 q 113 503 142 555 q 82 387 82 449 q 151 218 82 288 q 319 149 220 149 q 486 218 416 149 q 555 387 555 288 q 551 431 555 414 l 468 431 q 336 365 384 431 l 227 365 l 252 404 q 468 523 328 523 l 536 523 q 667 586 613 523 l 747 545 q 644 455 711 482 q 652 387 652 426 q 554 150 652 248 q 319 52 457 52 q 84 150 181 52 q -14 387 -14 248 q 33 555 -14 477 q 143 669 78 632 q 128 746 128 699 q 184 882 128 826 q 319 939 239 939 q 454 882 397 939 q 510 746 510 826 q 498 684 510 720 l 393 684 q 414 746 414 724 q 386 814 414 785 q 319 841 359 841 q 252 814 280 841 q 224 746 224 785 q 226 737 224 744 q 316 644 235 669 q 194 586 243 618 z "},"'":{"ha":121,"x_min":-24,"x_max":269,"o":"m 84 1021 l -24 1021 l 156 1325 l 269 1325 l 84 1021 z "},"(":{"ha":382,"x_min":-14,"x_max":300,"o":"m 39 674 q 233 991 100 858 l 300 924 q 125 637 178 800 q 300 48 26 323 l 233 -19 q 14 363 50 163 q 39 674 -14 516 z "},")":{"ha":382,"x_min":-19,"x_max":296,"o":"m 243 674 q 268 363 296 516 q 48 -19 231 163 l -19 48 q 156 637 256 323 q -19 924 104 800 l 48 991 q 243 674 181 858 z "},"*":{"ha":575,"x_min":-14,"x_max":494,"o":"m 494 684 l 357 684 l 453 587 l 385 519 l 288 615 l 288 478 l 192 478 l 192 615 l 95 518 l 27 587 l 123 684 l -14 684 l -14 780 l 123 780 l 28 877 l 96 945 l 192 848 l 192 985 l 288 985 l 288 848 l 386 945 l 454 877 l 357 780 l 494 780 l 494 684 z "},"+":{"ha":621,"x_min":-14,"x_max":513,"o":"m 299 534 l 513 534 l 513 436 l 299 436 l 299 222 l 201 222 l 201 436 l -14 436 l -14 534 l 201 534 l 201 749 l 299 749 l 299 534 z "},",":{"ha":302,"x_min":-24,"x_max":210,"o":"m 84 -80 l -24 -80 l 97 121 l 210 121 l 84 -80 z "},"-":{"ha":612,"x_min":-14,"x_max":513,"o":"m 513 436 l -14 436 l -14 534 l 513 534 l 513 436 z "},".":{"ha":218,"x_min":-14,"x_max":136,"o":"m 62 125 q 114 103 92 125 q 136 50 136 81 q 114 -2 136 20 q 62 -24 92 -24 q 8 -2 31 -24 q -14 50 -14 20 q 8 103 -14 81 q 62 125 31 125 z "},"/":{"ha":696,"x_min":-22,"x_max":606,"o":"m 86 -14 l -22 -14 l 497 985 l 606 985 l 86 -14 z "},":":{"ha":218,"x_min":-14,"x_max":137,"o":"m 62 404 q 115 381 92 404 q 136 328 137 359 q 114 276 136 298 q 62 254 92 254 q 8 276 31 254 q -14 328 -14 298 q 9 381 -13 359 q 62 404 31 404 m 62 719 q 114 697 92 719 q 137 644 136 675 q 114 591 136 612 q 62 569 92 569 q 8 591 31 569 q -13 644 -14 613 q 8 697 -14 675 q 62 719 31 719 z "},";":{"ha":302,"x_min":-24,"x_max":210,"o":"m 132 719 q 185 697 163 719 q 208 644 208 675 q 185 591 208 613 q 132 569 163 569 q 79 591 101 569 q 57 644 57 613 q 79 697 57 675 q 132 719 101 719 m 84 196 l -24 196 l 97 397 l 210 397 l 84 196 z "},"<":{"ha":771,"x_min":-29,"x_max":674,"o":"m 674 127 l -29 491 l 674 856 l 674 741 q 406 602 617 711 q 193 491 215 503 q 674 242 307 433 l 674 127 z "},"=":{"ha":621,"x_min":-14,"x_max":540,"o":"m 540 355 l -13 355 l -13 452 l 540 452 l 540 355 m 539 545 l -14 545 l -14 642 l 539 642 l 539 545 z "},">":{"ha":771,"x_min":-14,"x_max":690,"o":"m -14 242 q 467 491 353 433 q 254 602 445 503 q -14 741 43 711 l -14 856 l 690 491 l -14 127 l -14 242 z "},"?":{"ha":885,"x_min":-10,"x_max":807,"o":"m 687 1078 q 807 800 807 964 q 701 535 807 648 q 449 411 595 425 l 449 194 l 355 194 l 356 503 l 389 503 l 389 503 q 619 589 529 503 q 711 800 711 677 q 620 1010 711 922 q 398 1097 529 1097 q 177 1010 269 1097 q 90 804 86 923 l -9 803 q 109 1077 -10 962 q 398 1192 229 1192 q 687 1078 567 1192 m 402 122 q 453 101 432 122 q 474 50 474 80 q 453 0 474 21 q 402 -21 432 -21 q 351 0 372 -21 q 330 50 330 21 q 351 101 330 80 q 402 122 372 122 z "},"@":{"ha":1099,"x_min":-11,"x_max":1008,"o":"m 434 332 q 498 319 465 319 q 555 328 528 319 q 604 356 581 338 q 641 398 626 373 q 662 450 656 422 q 665 465 663 458 q 666 486 666 475 q 653 551 666 519 q 617 604 640 582 q 564 640 595 627 q 498 653 532 653 q 434 640 465 653 q 380 604 403 627 q 345 551 357 582 q 332 486 332 519 q 345 421 332 452 q 380 368 357 390 q 434 332 403 345 m 815 220 l 880 146 q 859 125 865 131 q 694 16 787 54 q 498 -24 601 -24 q 303 16 397 -24 q 138 125 210 54 q 28 290 66 197 q -11 486 -11 384 q 28 682 -11 588 q 138 846 66 774 q 303 956 210 918 q 498 996 397 996 q 694 956 601 996 q 859 846 787 918 q 969 682 931 774 q 1008 486 1008 588 q 1002 407 1008 444 q 984 351 996 369 q 923 284 965 310 q 832 258 882 258 q 749 279 788 258 q 703 315 712 300 q 623 252 680 283 q 498 221 564 221 q 395 242 445 221 q 311 298 349 262 q 255 382 275 336 q 234 486 234 432 q 255 589 234 540 q 311 673 275 636 q 395 730 349 710 q 498 751 445 751 q 602 730 553 751 q 686 673 649 710 q 743 589 723 636 q 764 486 764 540 l 764 473 q 833 355 758 362 q 882 375 859 355 q 898 395 891 384 q 905 414 904 404 q 906 425 905 419 q 908 439 907 433 q 910 466 910 458 l 910 467 l 911 486 q 880 644 911 568 q 791 778 848 719 q 656 867 732 836 q 498 898 581 898 q 341 867 416 898 q 207 778 266 836 q 117 644 149 719 q 87 486 87 568 q 117 328 87 404 q 207 194 149 253 q 341 104 266 136 q 498 74 416 74 q 656 104 581 74 q 791 194 732 136 q 815 220 798 201 z "},"A":{"ha":1129,"x_min":-22,"x_max":1046,"o":"m 1046 -15 l 937 -15 l 513 788 l 85 -15 l -22 -15 l 450 885 l 450 886 l 513 1002 l 571 891 l 1046 -15 z "},"B":{"ha":843,"x_min":-14,"x_max":762,"o":"m 84 83 l 382 83 q 526 119 456 84 q 661 351 661 186 q 385 664 676 538 q 505 753 475 712 q 522 800 522 774 q 471 874 522 852 q 406 886 441 886 l 84 886 l 84 83 m 570 670 q 762 351 762 593 q 572 33 762 125 q 382 -14 476 -14 l -14 -14 l -14 987 l 406 987 q 541 949 481 987 q 623 800 623 899 q 570 670 623 706 z "},"C":{"ha":1084,"x_min":-10,"x_max":1004,"o":"m 1000 359 q 816 81 952 186 q 503 -26 677 -26 q 140 125 290 -26 q -10 488 -10 275 q 140 850 -10 699 q 503 1000 291 1000 q 820 890 681 1000 q 1004 605 958 783 l 907 605 q 755 824 865 741 q 503 908 644 908 q 205 785 328 908 q 82 488 82 662 q 205 189 82 313 q 503 66 328 66 q 751 148 641 66 q 905 359 860 227 l 1000 359 z "},"D":{"ha":848,"x_min":-14,"x_max":767,"o":"m 558 195 q 667 486 667 297 q 558 779 667 677 q 345 877 478 853 q 224 886 276 886 l 85 886 l 85 87 l 225 87 q 558 195 444 87 m 627 852 q 767 486 767 721 q 626 121 767 252 q 372 -1 527 29 q 221 -13 290 -17 l 58 -13 l 58 -13 l -14 -13 l -13 987 l 129 987 l 222 986 q 379 974 318 986 q 627 852 526 945 z "},"E":{"ha":838,"x_min":-14,"x_max":757,"o":"m 754 263 l 172 263 l 172 361 l 754 361 l 754 263 m 757 887 l 87 887 l 87 85 l 757 85 l 757 -14 l -14 -14 l -14 987 l 757 987 l 757 887 z "},"F":{"ha":838,"x_min":-14,"x_max":757,"o":"m 754 263 l 172 263 l 172 361 l 754 361 l 754 263 m 757 887 l 87 887 l 87 -14 l -14 -14 l -14 987 l 757 987 l 757 887 z "},"G":{"ha":1163,"x_min":-10,"x_max":1101,"o":"m 966 262 q 816 81 920 161 q 503 -26 677 -26 q 140 125 290 -26 q -10 488 -10 275 q 140 850 -10 699 q 503 1000 291 1000 q 820 890 681 1000 q 1004 605 958 783 l 907 605 q 755 824 865 741 q 503 908 644 908 q 205 785 328 908 q 82 488 82 662 q 205 189 82 313 q 503 66 328 66 q 751 148 641 66 q 905 359 860 227 l 1101 359 l 1101 262 l 966 262 z "},"H":{"ha":907,"x_min":-14,"x_max":825,"o":"m 825 987 l 825 -14 l 727 -14 l 727 263 l 85 263 l 85 -14 l -14 -14 l -14 987 l 85 987 l 85 361 l 727 361 l 727 987 l 825 987 z "},"I":{"ha":166,"x_min":-14,"x_max":85,"o":"m 85 -14 l -14 -14 l -14 987 l 85 987 l 85 -14 z "},"J":{"ha":1036,"x_min":-19,"x_max":949,"o":"m 948 986 l 948 -158 q 806 -505 949 -361 q 460 -647 663 -647 q 159 -545 292 -647 q -19 -298 31 -444 l 87 -298 q 230 -469 129 -395 q 460 -545 332 -545 q 734 -432 620 -545 q 846 -158 846 -319 l 846 986 l 948 986 z "},"K":{"ha":1040,"x_min":-14,"x_max":959,"o":"m 85 -17 l -14 -17 l -14 983 l 85 983 l 85 -17 m 307 353 l 959 -299 l 821 -299 l 169 353 l 806 988 l 945 988 l 307 353 z "},"L":{"ha":835,"x_min":-14,"x_max":753,"o":"m 753 85 l 753 -14 l -14 -14 l -14 987 l 85 987 l 85 85 l 753 85 z "},"M":{"ha":1059,"x_min":-14,"x_max":977,"o":"m 976 1022 l 977 -14 l 883 -14 l 883 654 l 479 -26 l 79 647 l 79 -14 l -14 -14 l -14 1024 l 484 170 l 976 1022 z "},"N":{"ha":974,"x_min":-14,"x_max":892,"o":"m 892 987 l 892 -21 l 85 769 l 85 -14 l -14 -14 l -14 1006 l 794 203 l 794 987 l 892 987 z "},"O":{"ha":1095,"x_min":-14,"x_max":1014,"o":"m 500 73 q 794 194 672 73 q 916 488 916 316 q 794 783 916 661 q 500 904 672 904 q 205 783 328 904 q 84 488 84 661 q 205 194 84 316 q 500 73 328 73 m 500 1002 q 863 851 713 1002 q 1013 488 1014 701 q 863 125 1013 276 q 500 -25 712 -25 q 137 125 288 -25 q -14 488 -14 276 q 138 851 -13 701 q 500 1002 288 1002 z "},"P":{"ha":769,"x_min":-14,"x_max":688,"o":"m 307 987 q 498 940 402 987 q 688 621 688 847 q 498 302 688 395 q 307 256 402 256 l 85 256 l 85 -14 l -14 -14 l -14 987 l 307 987 m 85 889 l 85 353 l 307 353 q 452 389 381 354 q 587 621 587 455 q 452 854 587 787 q 307 889 381 889 l 85 889 z "},"Q":{"ha":1095,"x_min":-14,"x_max":1014,"o":"m 233 19 l 255 -15 q 292 -55 268 -35 q 406 -92 342 -92 l 600 -92 q 776 -152 699 -92 q 835 -216 814 -183 l 855 -250 l 806 -280 l 773 -300 l 751 -267 q 713 -228 739 -248 q 601 -191 665 -191 l 406 -191 q 231 -131 308 -191 q 171 -66 191 -100 l 151 -32 l 199 -3 l 233 19 m 500 73 q 794 194 672 73 q 916 488 916 316 q 794 783 916 661 q 500 904 672 904 q 205 783 328 904 q 84 488 84 661 q 205 194 84 316 q 500 73 328 73 m 500 1002 q 863 851 713 1002 q 1013 488 1014 701 q 863 125 1013 276 q 500 -25 712 -25 q 137 125 288 -25 q -14 488 -14 276 q 138 851 -13 701 q 500 1002 288 1002 z "},"R":{"ha":770,"x_min":-14,"x_max":689,"o":"m 689 621 q 552 333 689 430 q 373 262 465 273 l 656 -14 l 512 -14 l 231 260 l 136 353 l 309 353 q 454 389 383 353 q 589 621 589 456 q 454 854 589 787 q 309 889 384 889 l 85 889 l 85 -14 l -14 -14 l -14 987 l 58 987 l 58 987 l 309 987 q 500 940 404 987 q 689 621 689 847 z "},"S":{"ha":796,"x_min":-14,"x_max":715,"o":"m 428 874 q 350 906 395 906 q 273 874 304 906 q 241 797 241 842 q 273 721 241 753 q 364 691 298 695 q 481 665 431 687 q 648 534 585 625 q 715 329 715 441 q 608 76 715 180 q 351 -30 500 -30 q 96 74 201 -30 q -14 337 -11 176 l 83 337 q 164 142 86 218 q 351 67 242 67 q 538 144 461 67 q 617 329 617 221 q 539 515 617 438 q 359 597 460 592 q 216 642 259 602 q 204 652 207 648 q 144 797 143 712 q 205 943 144 882 q 350 1003 264 1003 q 497 943 435 1003 l 534 905 l 451 842 q 428 874 443 860 z "},"T":{"ha":827,"x_min":-14,"x_max":745,"o":"m 745 888 l 414 888 l 414 -14 l 316 -14 l 316 888 l -14 888 l -14 986 l 745 986 l 745 888 z "},"U":{"ha":982,"x_min":-14,"x_max":901,"o":"m 901 489 q 765 128 898 277 q 444 -22 631 -22 q 121 129 255 -22 q -14 490 -12 278 l -14 988 l 82 988 l 82 490 q 190 201 84 321 q 443 82 295 82 q 696 200 591 82 q 805 488 802 319 l 805 988 l 901 988 l 901 489 z "},"V":{"ha":1137,"x_min":-22,"x_max":1046,"o":"m -22 987 l 87 987 l 511 184 l 939 987 l 1046 987 l 574 87 l 574 86 l 511 -31 l 453 81 l -22 987 z "},"W":{"ha":1358,"x_min":-22,"x_max":1267,"o":"m 737 -29 l 623 188 l 509 -30 l -22 987 l 90 987 l 509 186 l 567 296 l 205 987 l 317 987 l 623 404 l 928 987 l 1040 987 l 680 296 l 737 186 l 1155 987 l 1267 987 l 737 -29 z "},"X":{"ha":948,"x_min":-23,"x_max":857,"o":"m 475 311 l 659 -14 l 543 -14 l 417 210 l 291 -14 l 175 -14 l 359 311 l -23 987 l 92 987 l 417 414 l 741 987 l 857 987 l 475 311 z "},"Y":{"ha":884,"x_min":-22,"x_max":794,"o":"m 338 302 l -22 987 l 86 987 l 386 410 l 686 987 l 794 987 l 436 302 l 435 -14 l 337 -14 l 338 302 z "},"Z":{"ha":848,"x_min":-20,"x_max":761,"o":"m 167 85 l 748 85 l 748 -14 l -20 -14 l 576 886 l -14 886 l -14 985 l 761 985 l 167 85 z "},"[":{"ha":226,"x_min":-14,"x_max":144,"o":"m -14 985 l 80 985 l 80 983 l 144 983 l 144 885 l 80 885 l 80 85 l 144 85 l 144 -14 l -14 -14 l -14 985 z "},"\\":{"ha":696,"x_min":-22,"x_max":606,"o":"m -22 985 l 86 985 l 606 -14 l 497 -14 l -22 985 z "},"]":{"ha":226,"x_min":-14,"x_max":144,"o":"m 144 -14 l -14 -14 l -14 85 l 51 85 l 51 885 l -14 885 l -14 983 l 51 983 l 51 985 l 144 985 l 144 -14 z "},"^":{"ha":404,"x_min":-22,"x_max":313,"o":"m -22 682 l 146 1007 l 313 682 l 210 682 l 146 819 l 81 682 l -22 682 z "},"_":{"ha":612,"x_min":-14,"x_max":513,"o":"m 513 -14 l -14 -14 l -14 85 l 513 85 l 513 -14 z "},"`":{"ha":350,"x_min":-24,"x_max":258,"o":"m -24 1329 l 89 1329 l 258 1048 l 150 1048 l -24 1329 z "},"a":{"ha":1095,"x_min":-14,"x_max":1014,"o":"m 500 73 q 794 194 672 73 q 916 488 916 316 q 794 783 916 661 q 500 904 672 904 q 205 783 328 904 q 84 488 84 661 q 205 194 84 316 q 500 73 328 73 m 916 182 q 863 125 909 172 q 500 -25 712 -25 q 137 125 288 -25 q -14 488 -14 276 q 138 851 -13 701 q 500 1002 288 1002 q 863 851 713 1002 q 1013 488 1014 701 l 1013 -14 l 916 -14 l 916 182 z "},"b":{"ha":1095,"x_min":-14,"x_max":1013,"o":"m 500 904 q 205 783 328 904 q 84 488 84 661 q 205 194 84 316 q 500 73 328 73 q 794 194 672 73 q 916 488 916 316 q 794 783 916 661 q 500 904 672 904 m 84 794 q 137 851 91 805 q 500 1002 288 1002 q 863 851 712 1002 q 1013 488 1013 701 q 862 125 1013 276 q 499 -25 711 -25 q 136 125 287 -25 q -14 488 -14 276 l -14 1196 l 84 1196 l 84 794 z "},"c":{"ha":1084,"x_min":-14,"x_max":1002,"o":"m 897 359 l 998 359 q 863 125 958 220 q 500 -25 712 -25 q 137 125 288 -25 q -14 488 -14 276 q 138 851 -13 701 q 500 1002 288 1002 q 863 851 713 1002 q 1002 603 965 749 l 901 603 q 794 783 869 707 q 500 904 672 904 q 205 783 328 904 q 84 488 84 661 q 205 194 84 316 q 500 73 328 73 q 794 194 672 73 q 897 359 864 264 z "},"d":{"ha":1095,"x_min":-14,"x_max":1014,"o":"m 500 904 q 205 783 328 904 q 84 488 84 661 q 205 194 84 316 q 500 73 328 73 q 794 194 672 73 q 916 488 916 316 q 794 783 916 661 q 500 904 672 904 m 916 1196 l 1013 1196 l 1013 488 q 863 125 1014 276 q 500 -25 713 -25 q 138 125 288 -25 q -14 488 -13 276 q 137 851 -14 701 q 500 1002 288 1002 q 863 851 712 1002 q 916 794 909 805 l 916 1196 z "},"e":{"ha":1084,"x_min":-14,"x_max":1002,"o":"m 99 604 q 84 488 84 555 q 205 194 84 316 q 500 73 328 73 q 794 194 672 73 q 897 359 864 264 l 998 359 q 863 125 958 220 q 500 -25 712 -25 q 137 125 288 -25 q -14 488 -14 276 q 138 851 -13 701 q 500 1002 288 1002 q 863 851 713 1002 q 1002 605 965 749 l 99 604 m 861 698 q 794 783 842 734 q 500 904 672 904 q 205 783 328 904 q 139 698 157 734 l 861 698 z "},"f":{"ha":524,"x_min":-13,"x_max":444,"o":"m 57 887 l -13 887 l -13 987 l 57 987 l 57 1113 q 119 1265 58 1202 q 271 1329 182 1329 q 421 1265 358 1329 q 444 1240 429 1257 l 374 1172 q 353 1197 359 1191 q 271 1232 319 1232 q 188 1197 222 1232 q 153 1112 153 1162 l 153 987 l 233 987 l 233 887 l 153 887 l 153 -15 l 57 -15 l 57 887 z "},"g":{"ha":1095,"x_min":-14,"x_max":1014,"o":"m 229 43 l 251 9 q 288 -31 264 -10 q 401 -68 338 -68 l 596 -68 q 772 -127 694 -68 q 831 -192 810 -159 l 851 -226 l 802 -256 l 769 -276 l 747 -243 q 709 -203 735 -223 q 597 -166 661 -166 l 402 -166 q 227 -106 304 -166 q 167 -42 187 -75 l 146 -7 l 195 22 l 229 43 m 500 73 q 794 194 672 73 q 916 488 916 316 q 794 783 916 661 q 500 904 672 904 q 205 783 328 904 q 84 488 84 661 q 205 194 84 316 q 500 73 328 73 m 508 -814 q 696 -736 618 -814 q 774 -548 774 -659 q 696 -359 774 -437 q 508 -281 618 -281 q 319 -359 397 -281 q 241 -548 241 -437 q 319 -736 241 -659 q 508 -814 397 -814 m 509 -186 q 764 -292 658 -186 q 870 -548 871 -398 q 764 -804 870 -698 q 508 -910 658 -910 q 252 -804 358 -910 q 146 -548 146 -698 q 252 -292 146 -398 q 509 -186 359 -186 m 909 800 q 1013 488 1014 670 q 863 125 1013 276 q 500 -25 712 -25 q 137 125 288 -25 q -14 488 -14 276 q 138 851 -13 701 q 500 1002 288 1002 q 835 878 705 1002 q 797 1041 866 930 l 883 1080 l 908 1023 q 925 846 947 937 q 909 800 918 815 z "},"h":{"ha":982,"x_min":-14,"x_max":901,"o":"m 81 798 q 122 845 84 802 q 444 996 256 996 q 766 844 632 996 q 901 483 899 695 l 901 -15 l 805 -15 l 805 483 q 697 772 803 652 q 444 891 592 891 q 191 773 296 891 q 82 485 85 654 l 82 -15 l -14 -15 l -14 1195 l 81 1195 l 81 798 z "},"i":{"ha":166,"x_min":-14,"x_max":85,"o":"m 85 -14 l -14 -14 l -14 987 l 85 987 l 85 -14 m 85 1101 l -14 1101 l -14 1194 l 85 1194 l 85 1101 z "},"j":{"ha":550,"x_min":-13,"x_max":471,"o":"m 471 987 l 471 145 q 334 -207 471 -60 q -13 -354 197 -353 l -13 -250 q 262 -134 154 -249 q 372 145 372 -18 l 372 145 l 372 987 l 471 987 z "},"k":{"ha":910,"x_min":-14,"x_max":829,"o":"m 191 308 l 532 -14 l 387 -14 l 84 270 l 84 -14 l -14 -14 l -14 1194 l 84 1194 l 84 339 l 692 986 l 829 986 l 191 308 z "},"l":{"ha":166,"x_min":-14,"x_max":85,"o":"m 85 -14 l -14 -14 l -14 1194 l 85 1194 l 85 -14 z "},"m":{"ha":1501,"x_min":-14,"x_max":1419,"o":"m 1419 -14 l 1324 -14 l 1324 623 q 1239 821 1322 739 q 1038 903 1155 903 q 836 821 920 903 q 751 623 753 739 l 751 -14 l 655 -14 l 655 623 q 570 821 653 739 q 368 903 486 903 q 168 821 251 903 q 82 623 83 739 l 82 -14 l -14 -14 l -14 623 q 100 888 -12 779 q 368 997 212 997 q 577 936 482 997 q 703 803 669 876 q 829 936 736 876 q 1038 997 924 997 q 1307 888 1195 997 q 1419 621 1419 777 l 1419 -14 z "},"n":{"ha":982,"x_min":-14,"x_max":901,"o":"m -14 484 q 122 845 -11 696 q 444 996 256 996 q 766 844 632 996 q 901 483 899 695 l 901 -15 l 805 -15 l 805 483 q 697 772 803 652 q 444 891 592 891 q 191 773 296 891 q 82 485 85 654 l 82 -15 l -14 -15 l -14 484 z "},"o":{"ha":1095,"x_min":-14,"x_max":1014,"o":"m 500 73 q 794 194 672 73 q 916 488 916 316 q 794 783 916 661 q 500 904 672 904 q 205 783 328 904 q 84 488 84 661 q 205 194 84 316 q 500 73 328 73 m 500 1002 q 863 851 713 1002 q 1013 488 1014 701 q 863 125 1013 276 q 500 -25 712 -25 q 137 125 288 -25 q -14 488 -14 276 q 138 851 -13 701 q 500 1002 288 1002 z "},"p":{"ha":1095,"x_min":-14,"x_max":1013,"o":"m 500 72 q 794 193 672 72 q 916 488 916 315 q 794 782 916 660 q 500 903 672 903 q 205 782 328 903 q 84 488 84 660 q 205 193 84 315 q 500 72 328 72 m 84 -351 l -14 -351 l -14 488 q 136 850 -14 700 q 499 1001 287 1001 q 862 850 711 1001 q 1013 488 1013 700 q 863 125 1013 275 q 500 -26 712 -26 q 137 125 288 -26 q 84 182 91 171 l 84 -351 z "},"q":{"ha":1095,"x_min":-14,"x_max":1014,"o":"m 500 72 q 794 193 672 72 q 916 488 916 315 q 794 782 916 660 q 500 903 672 903 q 205 782 328 903 q 84 488 84 660 q 205 193 84 315 q 500 72 328 72 m 916 182 q 863 125 909 171 q 500 -26 712 -26 q 137 125 288 -26 q -14 488 -14 275 q 138 850 -13 700 q 500 1001 288 1001 q 863 850 713 1001 q 1013 488 1014 700 l 1013 -351 l 916 -351 l 916 182 z "},"r":{"ha":614,"x_min":-14,"x_max":530,"o":"m 530 880 q 444 891 489 891 q 191 773 296 891 q 82 485 85 654 l 82 -15 l -14 -15 l -14 484 q 122 845 -11 696 q 444 996 256 996 q 530 987 488 996 l 530 880 z "},"s":{"ha":796,"x_min":-14,"x_max":715,"o":"m 428 874 q 350 906 395 906 q 273 874 304 906 q 241 797 241 842 q 273 721 241 753 q 364 691 298 695 q 481 665 431 687 q 648 534 585 625 q 715 329 715 441 q 608 76 715 180 q 351 -30 500 -30 q 96 74 201 -30 q -14 337 -11 176 l 83 337 q 164 142 86 218 q 351 67 242 67 q 538 144 461 67 q 617 329 617 221 q 539 515 617 438 q 359 597 460 592 q 216 642 259 602 q 204 652 207 648 q 144 797 143 712 q 205 943 144 882 q 350 1003 264 1003 q 497 943 435 1003 l 534 905 l 451 842 q 428 874 443 860 z "},"t":{"ha":623,"x_min":-14,"x_max":542,"o":"m 313 987 l 542 987 l 542 889 l 313 889 l 313 -14 l 214 -14 l 214 889 l -14 889 l -14 987 l 215 987 l 215 1194 l 313 1194 l 313 987 z "},"u":{"ha":982,"x_min":-14,"x_max":901,"o":"m 901 489 q 765 128 898 277 q 444 -22 631 -22 q 121 129 255 -22 q -14 490 -12 278 l -14 988 l 82 988 l 82 490 q 190 201 84 321 q 443 82 295 82 q 696 200 591 82 q 805 488 802 319 l 805 988 l 901 988 l 901 489 z "},"v":{"ha":1137,"x_min":-22,"x_max":1046,"o":"m -22 987 l 87 987 l 511 184 l 939 987 l 1046 987 l 574 87 l 574 86 l 511 -31 l 453 81 l -22 987 z "},"w":{"ha":1501,"x_min":-14,"x_max":1419,"o":"m -14 986 l 82 986 l 82 357 q 168 157 83 240 q 368 75 251 75 q 570 157 486 75 q 655 357 653 240 l 655 986 l 751 986 l 751 357 q 836 157 753 240 q 1038 75 920 75 q 1239 157 1155 75 q 1324 357 1322 240 l 1324 986 l 1419 986 l 1419 357 q 1306 90 1417 201 q 1038 -20 1194 -20 q 829 41 924 -20 q 703 176 737 102 q 577 41 669 102 q 368 -20 482 -20 q 100 91 212 -20 q -14 359 -12 202 l -14 986 z "},"x":{"ha":1148,"x_min":-19,"x_max":1061,"o":"m 521 559 l 992 1031 l 1061 961 l 591 490 l 1061 20 l 992 -50 l 521 421 l 51 -50 l -19 20 l 452 490 l -19 961 l 51 1030 l 521 559 z "},"y":{"ha":912,"x_min":-14,"x_max":831,"o":"m 831 987 l 831 175 l 831 64 q 705 -269 829 -130 q 408 -408 581 -408 q 153 -309 267 -408 q 3 -58 39 -212 l -7 -33 l 96 -33 l 102 -47 q 220 -232 135 -162 q 408 -301 304 -301 q 635 -195 538 -301 q 732 64 730 -87 l 731 153 q 610 45 701 102 q 409 -12 516 -12 q 111 127 235 -12 q -14 461 -12 266 l -14 987 l 85 987 l 84 462 q 177 199 81 330 q 409 88 277 88 q 633 187 534 88 q 730 436 728 292 l 731 988 l 831 987 z "},"z":{"ha":848,"x_min":-20,"x_max":761,"o":"m 167 85 l 748 85 l 748 -14 l -20 -14 l 576 886 l -14 886 l -14 985 l 761 985 l 167 85 z "},"{":{"ha":393,"x_min":-25,"x_max":300,"o":"m 165 1 q 300 -74 178 -74 l 300 -182 q 63 -3 74 -164 l 64 377 q -25 475 64 419 q 63 574 63 532 l 63 928 q 300 1133 62 1108 l 300 1027 q 165 928 171 1017 l 165 574 q 120 475 166 505 q 166 377 166 446 l 165 1 z "},"|":{"ha":166,"x_min":-14,"x_max":85,"o":"m 85 -300 l -14 -300 l -14 1175 l 85 1175 l 85 -300 z "},"}":{"ha":393,"x_min":-25,"x_max":300,"o":"m 109 377 q 155 475 109 446 q 110 574 109 505 l 110 928 q -25 1027 104 1017 l -25 1133 q 212 928 214 1108 l 212 574 q 300 475 212 532 q 212 377 212 419 l 212 -3 q -24 -182 201 -164 l -25 -74 q 110 1 97 -74 l 109 377 z "},"~":{"ha":814,"x_min":-22,"x_max":724,"o":"m -22 389 q 191 528 52 528 q 383 439 300 528 q 512 377 441 377 q 611 426 578 385 l 724 427 q 509 288 648 288 q 317 377 399 288 q 189 439 258 439 q 98 389 110 437 l -22 389 z "},"¡":{"ha":218,"x_min":-14,"x_max":136,"o":"m 15 988 l 111 988 l 111 -15 l 14 -15 l 15 988 m 61 1053 q 8 1075 31 1053 q -14 1128 -14 1097 q 8 1181 -14 1159 q 61 1203 31 1203 q 114 1181 92 1203 q 136 1128 136 1159 q 114 1075 136 1097 q 61 1053 92 1053 z "},"¢":{"ha":495,"x_min":-14,"x_max":433,"o":"m 224 795 l 213 795 q 113 754 154 795 q 71 654 71 713 q 103 564 71 602 l 224 795 m 343 705 q 302 764 327 743 l 173 516 q 213 513 180 513 q 296 541 259 513 q 342 600 323 560 l 431 600 q 351 475 403 515 q 213 428 290 428 q 134 440 159 428 l 87 353 l -8 353 l 62 485 q 53 494 64 483 q -14 654 -14 561 q 53 814 -14 748 q 213 881 119 881 q 265 876 250 881 l 315 973 l 410 973 l 342 842 q 353 832 338 844 q 433 705 406 791 l 343 705 z "},"£":{"ha":710,"x_min":-15,"x_max":627,"o":"m 271 412 q 271 267 291 337 q 216 152 252 201 q 359 127 245 157 l 380 121 l 402 116 q 450 106 427 111 q 585 116 513 94 l 616 20 q 430 6 519 -12 q 378 18 406 10 l 355 24 l 334 29 q 223 47 249 51 q 92 -27 183 42 l 18 43 l 62 90 q 173 294 138 177 q 163 410 188 349 q 162 412 162 410 l 2 412 l 2 509 l 106 509 q 95 526 101 517 l 73 559 q 52 594 60 578 q 16 669 28 634 q 26 838 -15 758 q 182 973 75 932 q 379 990 275 1008 q 545 916 479 974 q 627 756 612 857 l 525 756 q 463 851 510 817 q 363 890 420 880 q 223 879 290 902 q 117 792 148 853 q 113 700 96 749 q 180 582 126 662 l 202 549 q 223 515 214 530 q 227 509 225 511 l 459 509 l 459 412 l 271 412 z "},"¤":{"ha":528,"x_min":-19,"x_max":441,"o":"m 42 625 l -19 686 l 50 754 l 112 692 q 206 717 148 717 q 307 689 268 717 l 372 754 l 440 686 l 375 619 q 399 524 399 583 q 375 429 399 466 l 441 363 l 372 295 l 308 359 q 207 332 269 332 q 112 357 149 332 l 50 295 l -18 363 l 43 424 q 15 525 15 463 q 42 625 15 586 m 146 593 q 119 528 119 566 q 146 463 119 490 q 211 437 173 437 q 275 463 249 437 q 301 528 302 490 q 275 593 301 566 q 211 619 249 619 q 146 593 173 619 z "},"¥":{"ha":884,"x_min":-22,"x_max":794,"o":"m 290 391 l -22 986 l 86 986 l 386 409 l 686 986 l 794 986 l 482 391 l 605 391 l 605 294 l 433 294 l 436 303 l 436 241 l 606 241 l 606 144 l 436 144 l 435 -14 l 337 -14 l 338 144 l 163 144 l 163 241 l 338 241 l 338 300 l 344 294 l 162 294 l 162 391 l 290 391 z "},"¦":{"ha":166,"x_min":-13,"x_max":85,"o":"m 85 528 l -13 528 l -13 1175 l 85 1175 l 85 528 m 85 -300 l -13 -300 l -13 346 l 85 346 l 85 -300 z "},"§":{"ha":519,"x_min":-31,"x_max":435,"o":"m 321 656 q 286 730 317 699 q 197 766 249 766 l 188 766 q 170 757 178 765 q 158 730 159 745 q 170 705 158 716 q 196 694 181 694 q 277 678 239 694 q 321 656 300 669 m 88 818 q 57 905 57 854 q 98 1003 58 962 q 196 1044 139 1044 q 336 905 336 1044 l 336 873 l 235 873 l 235 905 q 196 942 235 942 q 170 931 180 942 q 158 905 158 920 q 170 878 158 890 q 186 869 178 870 l 196 869 q 304 842 267 869 q 423 640 435 774 q 408 551 417 568 q 423 469 423 521 q 357 311 423 377 q 196 245 290 245 q 37 310 103 245 q -31 498 -29 374 l 71 498 q 109 382 72 418 q 197 347 145 347 q 286 382 249 347 q 322 469 322 418 q 286 556 322 520 q 196 592 249 592 q 104 627 146 592 l 101 629 l 100 630 q 57 730 57 673 q 88 818 57 781 z "},"¨":{"ha":414,"x_min":-14,"x_max":345,"o":"m 62 1198 q 115 1176 93 1198 q 136 1122 137 1154 q 115 1070 136 1092 q 62 1048 93 1048 q 9 1070 31 1048 q -14 1122 -14 1092 q 9 1176 -13 1154 q 62 1198 31 1198 m 271 1198 q 323 1176 301 1198 q 345 1122 345 1154 q 323 1070 345 1092 q 271 1048 301 1048 q 217 1070 239 1048 q 195 1122 195 1092 q 217 1176 195 1154 q 271 1198 239 1198 z "},"©":{"ha":1072,"x_min":-14,"x_max":991,"o":"m 816 440 q 693 240 779 306 q 495 172 606 172 q 266 267 361 172 q 171 496 171 362 q 266 726 171 631 q 495 821 361 821 q 695 751 608 821 q 817 547 782 684 l 720 547 q 633 681 694 635 q 495 727 572 727 q 332 660 399 727 q 264 496 264 592 q 331 333 264 401 q 495 266 399 266 q 631 311 570 266 q 720 440 691 354 l 816 440 m 488 988 q 844 841 696 988 q 991 486 991 694 q 844 131 991 278 q 488 -16 696 -16 q 134 131 281 -16 q -14 486 -14 278 q 134 841 -14 694 q 488 988 281 988 m 492 905 q 198 783 320 905 q 77 488 76 661 q 198 194 76 316 q 492 73 319 73 q 786 194 665 73 q 909 488 908 316 q 787 783 908 661 q 492 905 665 905 z "},"ª":{"ha":68,"x_min":0,"x_max":0,"o":""},"«":{"ha":865,"x_min":-29,"x_max":768,"o":"m 475 239 l -29 500 l 476 763 l 475 654 q 292 559 431 631 q 180 501 169 495 q 476 348 229 476 l 475 239 m 767 239 l 262 500 l 768 763 l 767 654 q 584 559 722 631 q 471 501 460 495 q 768 348 520 476 l 767 239 z "},"¬":{"ha":68,"x_min":0,"x_max":0,"o":""},"®":{"ha":1072,"x_min":-14,"x_max":991,"o":"m 488 981 q 844 834 696 981 q 991 479 991 687 q 844 124 991 271 q 488 -23 696 -23 q 134 124 281 -23 q -14 479 -14 271 q 134 834 -14 687 q 488 981 281 981 m 503 425 q 580 444 542 425 q 648 564 648 478 q 579 684 648 650 q 503 703 542 703 l 389 703 l 389 425 l 503 425 m 738 564 q 652 385 738 446 q 574 345 599 348 l 743 182 l 614 182 l 454 337 l 389 337 l 389 182 l 300 182 l 300 791 l 503 791 q 620 763 562 791 q 738 564 738 705 m 492 898 q 198 776 320 898 q 77 481 76 654 q 198 188 76 309 q 492 66 319 66 q 786 188 665 66 q 909 481 908 309 q 787 776 908 654 q 492 898 665 898 z "},"¯":{"ha":729,"x_min":-14,"x_max":648,"o":"m 648 888 l -14 888 l -14 985 l 648 985 l 648 888 z "},"°":{"ha":324,"x_min":-14,"x_max":243,"o":"m 114 989 q 205 951 167 989 q 243 861 243 913 q 205 770 243 808 q 115 732 168 732 q 24 770 62 732 q -14 861 -14 808 q 24 951 -14 913 q 114 989 61 989 m 115 890 q 96 882 103 890 q 88 863 88 874 q 96 844 88 852 q 115 837 103 837 q 133 844 125 837 q 141 863 141 852 q 133 882 141 874 q 115 890 125 890 z "},"±":{"ha":438,"x_min":0,"x_max":0,"o":""},"²":{"ha":68,"x_min":0,"x_max":0,"o":""},"³":{"ha":1092,"x_min":0,"x_max":0,"o":""},"´":{"ha":350,"x_min":-24,"x_max":258,"o":"m 84 1048 l -24 1048 l 145 1329 l 258 1329 l 84 1048 z "},"µ":{"ha":978,"x_min":-14,"x_max":897,"o":"m 81 444 q 186 206 97 309 q 441 87 293 87 q 696 205 590 87 q 805 496 802 326 l 805 986 l 897 986 l 897 496 q 762 136 894 286 q 441 -14 629 -14 q 121 137 254 -14 q 81 182 83 179 l 81 -157 l -14 -157 l -14 987 l 81 987 l 81 444 z "},"¶":{"ha":515,"x_min":-14,"x_max":434,"o":"m 248 600 l 248 264 l 151 264 l 152 610 q 61 656 106 621 q -14 793 -14 712 q 60 930 -14 874 q 249 987 133 987 l 249 986 l 434 986 l 434 898 l 384 898 l 383 264 l 287 264 l 288 898 l 249 898 l 249 600 l 248 600 z "},"·":{"ha":218,"x_min":-14,"x_max":137,"o":"m 62 547 q 115 525 92 547 q 136 471 137 503 q 114 419 136 441 q 62 397 92 397 q 8 419 31 397 q -14 471 -14 441 q 9 525 -13 503 q 62 547 31 547 z "},"¸":{"ha":292,"x_min":-14,"x_max":210,"o":"m 4 -198 q 64 -185 41 -198 q 88 -157 88 -172 q 64 -130 88 -143 q 4 -117 41 -117 l -14 -117 l -14 14 l 85 14 l 85 -27 q 171 -73 132 -36 q 210 -159 210 -110 q 156 -258 210 -218 q 29 -298 103 -298 q -14 -294 14 -298 l -14 -198 l 4 -198 z "},"¹":{"ha":68,"x_min":0,"x_max":0,"o":""},"º":{"ha":68,"x_min":0,"x_max":0,"o":""},"»":{"ha":865,"x_min":-29,"x_max":768,"o":"m 262 348 q 559 501 510 476 q 446 559 569 495 q 263 654 308 631 l 262 763 l 768 500 l 263 239 l 262 348 m -29 348 q 267 501 218 476 q 155 559 277 495 q -28 654 16 631 l -29 763 l 476 500 l -28 239 l -29 348 z "},"¼":{"ha":68,"x_min":0,"x_max":0,"o":""},"½":{"ha":68,"x_min":0,"x_max":0,"o":""},"¾":{"ha":1050,"x_min":0,"x_max":0,"o":""},"¿":{"ha":885,"x_min":-9,"x_max":808,"o":"m 111 94 q -9 372 -9 208 q 97 636 -9 523 q 349 760 203 747 l 349 977 l 442 977 l 441 669 l 409 669 l 409 669 q 178 582 269 669 q 86 372 86 494 q 178 161 86 250 q 399 75 269 75 q 621 161 529 75 q 707 368 711 248 l 807 368 q 688 94 808 210 q 399 -21 568 -21 q 111 94 231 -21 m 395 1049 q 345 1070 366 1049 q 323 1121 323 1091 q 345 1171 323 1150 q 395 1192 366 1192 q 446 1171 425 1192 q 467 1121 467 1150 q 446 1070 467 1091 q 395 1049 425 1049 z "},"À":{"ha":1137,"x_min":-22,"x_max":1046,"o":"m 227 1357 l 340 1357 l 509 1076 l 401 1076 l 227 1357 m 1046 -15 l 937 -15 l 513 788 l 85 -15 l -22 -15 l 450 885 l 450 886 l 513 1002 l 571 891 l 1046 -15 z "},"Á":{"ha":1137,"x_min":-22,"x_max":1046,"o":"m 627 1077 l 519 1077 l 688 1358 l 801 1358 l 627 1077 m 1046 -15 l 937 -15 l 513 788 l 85 -15 l -22 -15 l 450 885 l 450 886 l 513 1002 l 571 891 l 1046 -15 z "},"Â":{"ha":1137,"x_min":-22,"x_max":1046,"o":"m 290 1076 l 513 1309 l 734 1076 l 612 1076 l 513 1183 l 412 1076 l 290 1076 m 1046 -15 l 937 -15 l 513 788 l 85 -15 l -22 -15 l 450 885 l 450 886 l 513 1002 l 571 891 l 1046 -15 z "},"Ã":{"ha":1137,"x_min":-22,"x_max":1046,"o":"m 756 1216 q 632 1082 719 1103 q 487 1108 557 1061 q 413 1124 448 1133 q 378 1080 378 1114 l 268 1080 q 392 1213 307 1192 q 536 1187 466 1233 q 610 1170 575 1161 q 656 1216 642 1183 l 756 1216 m 1046 -15 l 937 -15 l 513 788 l 85 -15 l -22 -15 l 450 885 l 450 886 l 513 1002 l 571 891 l 1046 -15 z "},"Ä":{"ha":1129,"x_min":-22,"x_max":1046,"o":"m 1046 -15 l 937 -15 l 513 788 l 85 -15 l -22 -15 l 450 885 l 450 886 l 513 1002 l 571 891 l 1046 -15 m 409 1224 q 461 1202 439 1224 q 483 1149 484 1180 q 461 1096 483 1118 q 409 1074 439 1074 q 355 1096 378 1074 q 333 1149 333 1118 q 356 1202 334 1181 q 409 1224 378 1224 m 617 1224 q 670 1202 648 1224 q 691 1149 692 1180 q 669 1096 691 1118 q 617 1074 648 1074 q 564 1096 586 1074 q 541 1149 541 1118 q 564 1202 542 1181 q 617 1224 586 1224 z "},"Å":{"ha":1129,"x_min":-22,"x_max":1046,"o":"m 511 1109 q 495 1103 501 1109 q 489 1086 489 1096 q 495 1069 488 1076 q 512 1063 503 1063 q 528 1070 522 1063 q 536 1088 534 1077 q 528 1102 536 1095 q 511 1109 520 1109 m 517 994 l 571 891 l 1046 -15 l 937 -15 l 513 788 l 85 -15 l -22 -15 l 450 885 l 450 886 l 509 994 q 448 1021 473 996 q 422 1084 422 1047 q 447 1148 420 1122 q 511 1175 473 1175 q 575 1148 549 1175 q 603 1084 602 1122 q 576 1021 603 1047 q 517 994 551 996 z "},"Æ":{"ha":1438,"x_min":-24,"x_max":1346,"o":"m 1343 263 l 762 263 l 762 361 l 1343 361 l 1343 263 m 576 765 l 98 -15 l -24 -15 l 582 987 l 1346 987 l 1346 887 l 677 887 l 677 85 l 1346 85 l 1346 -14 l 576 -14 l 576 765 z "},"Ç":{"ha":1084,"x_min":-10,"x_max":1004,"o":"m 431 -21 q 140 125 264 0 q -10 488 -10 275 q 140 850 -10 699 q 503 1000 291 1000 q 820 890 681 1000 q 1004 605 958 783 l 907 605 q 755 824 865 741 q 503 908 644 908 q 205 785 328 908 q 82 488 82 662 q 205 189 82 313 q 503 66 328 66 q 751 148 641 66 q 905 359 860 227 l 1000 359 q 816 81 952 186 q 530 -25 688 -17 l 530 -55 q 616 -100 578 -64 q 655 -187 655 -138 q 601 -286 654 -245 q 474 -326 548 -326 q 431 -321 459 -326 l 431 -231 q 484 -235 467 -235 q 537 -220 515 -235 q 559 -183 559 -205 q 537 -146 559 -161 q 484 -131 515 -131 q 431 -136 467 -131 l 431 -21 z "},"È":{"ha":838,"x_min":-14,"x_max":757,"o":"m 754 263 l 172 263 l 172 361 l 754 361 l 754 263 m 757 887 l 87 887 l 87 85 l 757 85 l 757 -14 l -14 -14 l -14 987 l 757 987 l 757 887 m 191 1358 l 304 1358 l 473 1077 l 366 1077 l 191 1358 z "},"É":{"ha":838,"x_min":-14,"x_max":757,"o":"m 754 263 l 172 263 l 172 361 l 754 361 l 754 263 m 757 887 l 87 887 l 87 85 l 757 85 l 757 -14 l -14 -14 l -14 987 l 757 987 l 757 887 m 378 1076 l 270 1076 l 439 1357 l 552 1357 l 378 1076 z "},"Ê":{"ha":838,"x_min":-14,"x_max":757,"o":"m 754 263 l 172 263 l 172 361 l 754 361 l 754 263 m 757 887 l 87 887 l 87 85 l 757 85 l 757 -14 l -14 -14 l -14 987 l 757 987 l 757 887 m 149 1077 l 372 1310 l 594 1077 l 471 1077 l 373 1184 l 272 1077 l 149 1077 z "},"Ë":{"ha":838,"x_min":-14,"x_max":757,"o":"m 754 263 l 172 263 l 172 361 l 754 361 l 754 263 m 757 887 l 87 887 l 87 85 l 757 85 l 757 -14 l -14 -14 l -14 987 l 757 987 l 757 887 m 269 1227 q 321 1205 299 1227 q 342 1152 343 1183 q 321 1100 342 1122 q 269 1078 299 1078 q 215 1100 237 1078 q 193 1152 193 1122 q 215 1206 193 1184 q 269 1227 237 1227 m 477 1227 q 529 1205 507 1227 q 551 1152 551 1183 q 529 1100 551 1122 q 477 1078 507 1078 q 423 1100 446 1078 q 401 1152 401 1122 q 424 1206 401 1184 q 477 1227 446 1227 z "},"Ì":{"ha":350,"x_min":0,"x_max":282,"o":"m 237 -14 l 139 -14 l 139 986 l 237 986 l 237 -14 m 0 1356 l 113 1356 l 282 1076 l 174 1076 l 0 1356 z "},"Í":{"ha":350,"x_min":0,"x_max":282,"o":"m 100 -14 l 2 -14 l 2 986 l 100 986 l 100 -14 m 108 1076 l 0 1076 l 169 1356 l 282 1356 l 108 1076 z "},"Î":{"ha":512,"x_min":0,"x_max":444,"o":"m 271 -14 l 173 -14 l 173 986 l 271 986 l 271 -14 m 0 1076 l 223 1308 l 444 1076 l 322 1076 l 223 1183 l 122 1076 l 0 1076 z "},"Ï":{"ha":427,"x_min":0,"x_max":359,"o":"m 229 -14 l 130 -14 l 130 987 l 229 987 l 229 -14 m 76 1228 q 129 1206 107 1228 q 150 1153 151 1184 q 129 1100 150 1122 q 76 1078 107 1078 q 22 1100 45 1078 q 0 1153 0 1122 q 23 1206 1 1185 q 76 1228 45 1228 m 284 1228 q 337 1206 315 1228 q 358 1153 359 1184 q 337 1100 358 1122 q 284 1078 315 1078 q 231 1100 253 1078 q 208 1153 208 1122 q 231 1206 210 1185 q 284 1228 253 1228 z "},"Ð":{"ha":1127,"x_min":-14,"x_max":1046,"o":"m 332 548 l 332 452 l 213 452 l 213 87 l 504 87 q 837 195 722 87 q 945 486 945 296 q 837 777 945 675 q 623 875 757 851 q 505 884 555 888 l 213 884 l 213 548 l 332 548 m 115 548 l 115 985 l 257 985 l 500 984 q 658 972 597 984 q 905 850 805 943 q 1046 486 1046 720 q 905 121 1046 252 q 650 -1 806 28 q 500 -13 568 -17 l 115 -13 l 115 452 l -14 452 l -14 548 l 115 548 z "},"Ñ":{"ha":974,"x_min":-14,"x_max":892,"o":"m 892 985 l 892 -14 l 873 -14 l 798 60 l 85 768 l 85 -14 l -14 -14 l -14 1004 l 81 910 l 794 203 l 794 985 l 892 985 m 684 1217 q 559 1083 646 1105 q 414 1110 485 1063 q 340 1126 376 1135 q 306 1082 306 1116 l 195 1082 q 319 1215 234 1194 q 463 1188 393 1234 q 538 1172 503 1163 q 584 1217 570 1185 l 684 1217 z "},"Ò":{"ha":1095,"x_min":-14,"x_max":1014,"o":"m 500 73 q 794 194 672 73 q 916 488 916 316 q 794 783 916 661 q 500 904 672 904 q 205 783 328 904 q 84 488 84 661 q 205 194 84 316 q 500 73 328 73 m 500 1002 q 863 851 713 1002 q 1013 488 1014 701 q 863 125 1013 276 q 500 -25 712 -25 q 137 125 288 -25 q -14 488 -14 276 q 138 851 -13 701 q 500 1002 288 1002 m 319 1381 l 433 1381 l 602 1100 l 494 1100 l 319 1381 z "},"Ó":{"ha":1095,"x_min":-14,"x_max":1014,"o":"m 500 73 q 794 194 672 73 q 916 488 916 316 q 794 783 916 661 q 500 904 672 904 q 205 783 328 904 q 84 488 84 661 q 205 194 84 316 q 500 73 328 73 m 500 1002 q 863 851 713 1002 q 1013 488 1014 701 q 863 125 1013 276 q 500 -25 712 -25 q 137 125 288 -25 q -14 488 -14 276 q 138 851 -13 701 q 500 1002 288 1002 m 506 1101 l 398 1101 l 567 1382 l 680 1382 l 506 1101 z "},"Ô":{"ha":1095,"x_min":-14,"x_max":1014,"o":"m 500 73 q 794 194 672 73 q 916 488 916 316 q 794 783 916 661 q 500 904 672 904 q 205 783 328 904 q 84 488 84 661 q 205 194 84 316 q 500 73 328 73 m 500 1002 q 863 851 713 1002 q 1013 488 1014 701 q 863 125 1013 276 q 500 -25 712 -25 q 137 125 288 -25 q -14 488 -14 276 q 138 851 -13 701 q 500 1002 288 1002 m 277 1075 l 500 1308 l 722 1075 l 600 1075 l 501 1182 l 400 1075 l 277 1075 z "},"Õ":{"ha":1095,"x_min":-14,"x_max":1014,"o":"m 500 73 q 794 194 672 73 q 916 488 916 316 q 794 783 916 661 q 500 904 672 904 q 205 783 328 904 q 84 488 84 661 q 205 194 84 316 q 500 73 328 73 m 500 1002 q 863 851 713 1002 q 1013 488 1014 701 q 863 125 1013 276 q 500 -25 712 -25 q 137 125 288 -25 q -14 488 -14 276 q 138 851 -13 701 q 500 1002 288 1002 m 744 1215 q 620 1081 707 1102 q 475 1107 546 1061 q 401 1124 435 1133 q 366 1080 366 1114 l 256 1080 q 380 1213 294 1192 q 524 1186 454 1232 q 598 1169 563 1160 q 644 1215 630 1182 l 744 1215 z "},"Ö":{"ha":1095,"x_min":-14,"x_max":1014,"o":"m 500 73 q 794 194 672 73 q 916 488 916 316 q 794 783 916 661 q 500 904 672 904 q 205 783 328 904 q 84 488 84 661 q 205 194 84 316 q 500 73 328 73 m 500 1002 q 863 851 713 1002 q 1013 488 1014 701 q 863 125 1013 276 q 500 -25 712 -25 q 137 125 288 -25 q -14 488 -14 276 q 138 851 -13 701 q 500 1002 288 1002 m 397 1252 q 449 1230 427 1252 q 471 1177 471 1208 q 449 1124 471 1146 q 397 1102 427 1102 q 343 1124 366 1102 q 321 1177 321 1146 q 343 1230 321 1208 q 397 1252 366 1252 m 605 1252 q 657 1230 635 1252 q 679 1177 680 1208 q 657 1124 679 1146 q 605 1102 635 1102 q 551 1124 574 1102 q 529 1177 529 1146 q 552 1230 530 1208 q 605 1252 574 1252 z "},"×":{"ha":527,"x_min":-19,"x_max":440,"o":"m 210 481 l 372 642 l 440 574 l 279 413 l 440 252 l 372 183 l 210 345 l 50 183 l -19 252 l 142 413 l -19 574 l 50 642 l 210 481 z "},"Ø":{"ha":1102,"x_min":-14,"x_max":1014,"o":"m 349 100 q 500 73 410 73 q 794 194 672 73 q 916 488 916 316 q 794 783 916 661 q 731 836 758 818 l 349 100 m 260 147 l 642 881 q 500 904 583 904 q 205 783 328 904 q 84 488 84 661 q 205 194 84 316 q 260 147 237 163 m 303 12 l 252 -86 l 138 -86 l 215 60 q 137 125 178 83 q -14 488 -14 276 q 138 851 -13 701 q 500 1002 288 1002 q 687 968 607 1002 l 739 1067 l 852 1067 l 776 922 q 863 851 817 897 q 1013 488 1014 701 q 863 125 1013 276 q 500 -25 712 -25 q 303 12 387 -25 z "},"Ù":{"ha":982,"x_min":-14,"x_max":901,"o":"m 901 489 q 765 128 898 277 q 444 -22 631 -22 q 121 129 255 -22 q -14 490 -12 278 l -14 988 l 82 988 l 82 490 q 190 201 84 321 q 443 82 295 82 q 696 200 591 82 q 805 488 802 319 l 805 988 l 901 988 l 901 489 m 255 1356 l 369 1356 l 538 1075 l 429 1075 l 255 1356 z "},"Ú":{"ha":982,"x_min":-14,"x_max":901,"o":"m 901 489 q 765 128 898 277 q 444 -22 631 -22 q 121 129 255 -22 q -14 490 -12 278 l -14 988 l 82 988 l 82 490 q 190 201 84 321 q 443 82 295 82 q 696 200 591 82 q 805 488 802 319 l 805 988 l 901 988 l 901 489 m 458 1076 l 349 1076 l 518 1356 l 632 1356 l 458 1076 z "},"Û":{"ha":982,"x_min":-14,"x_max":901,"o":"m 901 489 q 765 128 898 277 q 444 -22 631 -22 q 121 129 255 -22 q -14 490 -12 278 l -14 988 l 82 988 l 82 490 q 190 201 84 321 q 443 82 295 82 q 696 200 591 82 q 805 488 802 319 l 805 988 l 901 988 l 901 489 m 221 1075 l 444 1308 l 666 1075 l 543 1075 l 445 1182 l 344 1075 l 221 1075 z "},"Ü":{"ha":982,"x_min":-14,"x_max":901,"o":"m 901 489 q 765 128 898 277 q 444 -22 631 -22 q 121 129 255 -22 q -14 490 -12 278 l -14 988 l 82 988 l 82 490 q 190 201 84 321 q 443 82 295 82 q 696 200 591 82 q 805 488 802 319 l 805 988 l 901 988 l 901 489 m 340 1158 q 393 1136 371 1158 q 414 1083 415 1114 q 393 1030 414 1053 q 340 1008 371 1008 q 287 1030 309 1008 q 264 1083 264 1053 q 287 1137 265 1115 q 340 1158 309 1158 m 549 1158 q 601 1136 579 1158 q 623 1083 623 1114 q 601 1030 623 1053 q 549 1008 579 1008 q 495 1030 517 1008 q 473 1083 473 1053 q 495 1137 473 1115 q 549 1158 517 1158 z "},"Ý":{"ha":884,"x_min":-22,"x_max":794,"o":"m 338 302 l -22 987 l 86 987 l 386 410 l 686 987 l 794 987 l 436 302 l 435 -14 l 337 -14 l 338 302 m 400 1009 l 292 1009 l 460 1290 l 574 1290 l 400 1009 z "},"Þ":{"ha":770,"x_min":-14,"x_max":688,"o":"m 85 752 l 85 217 l 308 217 q 452 253 381 218 q 587 485 587 319 q 453 717 587 650 q 307 752 381 752 l 85 752 m 81 850 l 307 850 q 498 803 402 850 q 688 485 688 711 q 498 166 688 258 q 308 120 403 120 l 85 120 l 85 -14 l -13 -14 l -13 -12 l -14 -12 l -14 987 l 81 987 l 81 850 z "},"ß":{"ha":1020,"x_min":-9,"x_max":943,"o":"m -9 948 q 98 1168 -8 1078 q 350 1260 203 1260 q 604 1168 498 1260 q 710 945 710 1076 q 670 800 710 869 l 666 794 l 665 793 q 652 773 657 780 l 650 770 l 646 766 q 634 730 634 749 q 688 663 634 685 q 698 660 692 662 q 725 648 710 655 l 727 647 l 731 645 q 885 515 829 599 q 943 334 943 431 q 823 81 943 185 q 534 -23 703 -23 q 290 49 399 -23 q 142 235 180 121 l 125 290 l 220 290 l 229 262 q 342 121 258 176 q 534 66 428 66 q 759 145 666 66 q 852 334 852 224 q 802 477 852 411 q 666 576 751 544 q 654 580 661 578 q 625 595 640 587 l 625 595 l 617 600 q 543 730 543 650 q 554 783 543 755 l 557 791 l 558 792 q 574 821 565 807 q 579 826 577 823 q 619 945 619 881 q 541 1104 619 1038 q 350 1171 463 1171 q 161 1104 239 1171 q 82 947 82 1039 l 82 -10 l -9 -10 l -9 948 z "},"à":{"ha":1095,"x_min":-14,"x_max":1014,"o":"m 500 73 q 794 194 672 73 q 916 488 916 316 q 794 783 916 661 q 500 904 672 904 q 205 783 328 904 q 84 488 84 661 q 205 194 84 316 q 500 73 328 73 m 916 182 q 863 125 909 172 q 500 -25 712 -25 q 137 125 288 -25 q -14 488 -14 276 q 138 851 -13 701 q 500 1002 288 1002 q 863 851 713 1002 q 1013 488 1014 701 l 1013 -14 l 916 -14 l 916 182 m 311 1356 l 425 1356 l 593 1076 l 486 1076 l 311 1356 z "},"á":{"ha":1095,"x_min":-14,"x_max":1014,"o":"m 500 73 q 794 194 672 73 q 916 488 916 316 q 794 783 916 661 q 500 904 672 904 q 205 783 328 904 q 84 488 84 661 q 205 194 84 316 q 500 73 328 73 m 916 182 q 863 125 909 172 q 500 -25 712 -25 q 137 125 288 -25 q -14 488 -14 276 q 138 851 -13 701 q 500 1002 288 1002 q 863 851 713 1002 q 1013 488 1014 701 l 1013 -14 l 916 -14 l 916 182 m 514 1076 l 406 1076 l 574 1356 l 688 1356 l 514 1076 z "},"â":{"ha":1095,"x_min":-14,"x_max":1014,"o":"m 500 73 q 794 194 672 73 q 916 488 916 316 q 794 783 916 661 q 500 904 672 904 q 205 783 328 904 q 84 488 84 661 q 205 194 84 316 q 500 73 328 73 m 916 182 q 863 125 909 172 q 500 -25 712 -25 q 137 125 288 -25 q -14 488 -14 276 q 138 851 -13 701 q 500 1002 288 1002 q 863 851 713 1002 q 1013 488 1014 701 l 1013 -14 l 916 -14 l 916 182 m 277 1076 l 500 1308 l 722 1076 l 600 1076 l 501 1183 l 400 1076 l 277 1076 z "},"ã":{"ha":1095,"x_min":-14,"x_max":1014,"o":"m 500 73 q 794 194 672 73 q 916 488 916 316 q 794 783 916 661 q 500 904 672 904 q 205 783 328 904 q 84 488 84 661 q 205 194 84 316 q 500 73 328 73 m 916 182 q 863 125 909 172 q 500 -25 712 -25 q 137 125 288 -25 q -14 488 -14 276 q 138 851 -13 701 q 500 1002 288 1002 q 863 851 713 1002 q 1013 488 1014 701 l 1013 -14 l 916 -14 l 916 182 m 744 1216 q 620 1082 707 1103 q 475 1108 546 1061 q 401 1124 435 1133 q 366 1080 366 1114 l 256 1080 q 380 1213 294 1192 q 524 1187 454 1233 q 598 1170 563 1161 q 644 1216 630 1183 l 744 1216 z "},"ä":{"ha":1095,"x_min":-14,"x_max":1014,"o":"m 500 73 q 794 194 672 73 q 916 488 916 316 q 794 783 916 661 q 500 904 672 904 q 205 783 328 904 q 84 488 84 661 q 205 194 84 316 q 500 73 328 73 m 916 182 q 863 125 909 172 q 500 -25 712 -25 q 137 125 288 -25 q -14 488 -14 276 q 138 851 -13 701 q 500 1002 288 1002 q 863 851 713 1002 q 1013 488 1014 701 l 1013 -14 l 916 -14 l 916 182 m 397 1225 q 449 1203 427 1225 q 471 1149 471 1181 q 449 1097 471 1119 q 397 1075 427 1075 q 343 1097 366 1075 q 321 1150 321 1119 q 343 1203 321 1181 q 397 1225 365 1225 m 605 1225 q 657 1203 635 1225 q 679 1149 680 1181 q 657 1097 679 1119 q 605 1075 635 1075 q 551 1097 574 1075 q 529 1150 529 1119 q 551 1203 530 1181 q 605 1225 573 1225 z "},"å":{"ha":1095,"x_min":-14,"x_max":1014,"o":"m 500 73 q 794 194 672 73 q 916 488 916 316 q 794 783 916 661 q 500 904 672 904 q 205 783 328 904 q 84 488 84 661 q 205 194 84 316 q 500 73 328 73 m 916 182 q 863 125 909 172 q 500 -25 712 -25 q 137 125 288 -25 q -14 488 -14 276 q 138 851 -13 701 q 500 1002 288 1002 q 863 851 713 1002 q 1013 488 1014 701 l 1013 -14 l 916 -14 l 916 182 m 499 1258 q 563 1231 536 1258 q 591 1167 589 1204 q 564 1103 591 1130 q 500 1077 537 1077 q 436 1103 462 1077 q 410 1167 410 1130 q 435 1231 408 1204 q 499 1258 461 1258 m 497 1201 q 476 1192 485 1201 q 467 1168 467 1183 q 476 1146 467 1155 q 499 1137 486 1137 q 523 1146 513 1137 q 532 1171 532 1156 q 522 1192 532 1182 q 497 1201 512 1201 z "},"æ":{"ha":2010,"x_min":-14,"x_max":1919,"o":"m 500 73 q 794 194 672 73 q 916 488 916 316 q 794 783 916 661 q 500 904 672 904 q 205 783 328 904 q 84 488 84 661 q 205 194 84 316 q 500 73 328 73 m 1773 707 q 1666 822 1741 768 q 1430 897 1561 897 q 1151 787 1266 897 q 1085 707 1104 743 l 1773 707 m 1014 193 l 1014 -12 l 920 -12 l 919 186 q 863 125 912 174 q 500 -25 712 -25 q 137 125 288 -25 q -14 488 -14 276 q 138 851 -13 701 q 500 1002 288 1002 q 863 851 713 1002 q 971 701 946 768 q 1073 840 995 762 q 1430 988 1221 988 q 1741 880 1604 988 q 1917 621 1876 774 l 1044 620 q 1017 484 1017 549 q 1140 195 1021 315 q 1430 72 1260 76 q 1670 155 1563 76 q 1820 362 1775 232 l 1919 362 q 1737 85 1871 188 q 1430 -20 1601 -20 q 1073 127 1221 -20 q 1014 193 1022 178 z "},"ç":{"ha":1072,"x_min":-14,"x_max":991,"o":"m 469 -20 q 135 128 280 -16 q -14 488 -14 277 q 135 846 -14 697 q 494 995 284 995 q 808 886 670 995 q 991 596 944 780 l 884 596 q 737 811 843 731 q 494 892 629 892 q 207 774 326 892 q 90 488 90 655 q 208 201 90 319 q 494 83 326 83 q 733 161 627 83 q 882 369 838 237 l 988 369 q 804 85 938 189 q 568 -16 692 -1 l 568 -27 q 654 -73 615 -36 q 693 -159 693 -110 q 639 -258 692 -218 q 512 -298 586 -298 q 469 -294 497 -298 l 469 -198 l 487 -198 q 561 -185 537 -198 q 585 -157 585 -172 q 561 -130 585 -143 q 500 -117 537 -117 l 469 -117 l 469 -20 z "},"è":{"ha":1084,"x_min":-14,"x_max":1002,"o":"m 99 604 q 84 488 84 555 q 205 194 84 316 q 500 73 328 73 q 794 194 672 73 q 897 359 864 264 l 998 359 q 863 125 958 220 q 500 -25 712 -25 q 137 125 288 -25 q -14 488 -14 276 q 138 851 -13 701 q 500 1002 288 1002 q 863 851 713 1002 q 1002 605 965 749 l 99 604 m 861 698 q 794 783 842 734 q 500 904 672 904 q 205 783 328 904 q 139 698 157 734 l 861 698 m 307 1357 l 420 1357 l 589 1076 l 481 1076 l 307 1357 z "},"é":{"ha":1084,"x_min":-14,"x_max":1002,"o":"m 99 604 q 84 488 84 555 q 205 194 84 316 q 500 73 328 73 q 794 194 672 73 q 897 359 864 264 l 998 359 q 863 125 958 220 q 500 -25 712 -25 q 137 125 288 -25 q -14 488 -14 276 q 138 851 -13 701 q 500 1002 288 1002 q 863 851 713 1002 q 1002 605 965 749 l 99 604 m 861 698 q 794 783 842 734 q 500 904 672 904 q 205 783 328 904 q 139 698 157 734 l 861 698 m 508 1076 l 400 1076 l 569 1356 l 682 1356 l 508 1076 z "},"ê":{"ha":1084,"x_min":-14,"x_max":1002,"o":"m 99 604 q 84 488 84 555 q 205 194 84 316 q 500 73 328 73 q 794 194 672 73 q 897 359 864 264 l 998 359 q 863 125 958 220 q 500 -25 712 -25 q 137 125 288 -25 q -14 488 -14 276 q 138 851 -13 701 q 500 1002 288 1002 q 863 851 713 1002 q 1002 605 965 749 l 99 604 m 861 698 q 794 783 842 734 q 500 904 672 904 q 205 783 328 904 q 139 698 157 734 l 861 698 m 272 1076 l 495 1308 l 717 1076 l 594 1076 l 496 1183 l 395 1076 l 272 1076 z "},"ë":{"ha":1084,"x_min":-14,"x_max":1002,"o":"m 99 604 q 84 488 84 555 q 205 194 84 316 q 500 73 328 73 q 794 194 672 73 q 897 359 864 264 l 998 359 q 863 125 958 220 q 500 -25 712 -25 q 137 125 288 -25 q -14 488 -14 276 q 138 851 -13 701 q 500 1002 288 1002 q 863 851 713 1002 q 1002 605 965 749 l 99 604 m 861 698 q 794 783 842 734 q 500 904 672 904 q 205 783 328 904 q 139 698 157 734 l 861 698 m 391 1225 q 445 1203 422 1225 q 465 1149 467 1181 q 444 1097 465 1119 q 391 1075 422 1075 q 338 1097 360 1075 q 315 1149 315 1119 q 338 1203 317 1181 q 391 1225 360 1225 m 600 1225 q 653 1203 631 1225 q 673 1149 675 1181 q 652 1097 673 1119 q 600 1075 631 1075 q 546 1097 568 1075 q 524 1149 524 1119 q 547 1203 525 1181 q 600 1225 568 1225 z "},"ì":{"ha":350,"x_min":0,"x_max":282,"o":"m 237 -14 l 139 -14 l 139 986 l 237 986 l 237 -14 m 0 1329 l 113 1329 l 282 1048 l 174 1048 l 0 1329 z "},"í":{"ha":350,"x_min":0,"x_max":282,"o":"m 100 -14 l 2 -14 l 2 986 l 100 986 l 100 -14 m 108 1048 l 0 1048 l 169 1329 l 282 1329 l 108 1048 z "},"î":{"ha":512,"x_min":0,"x_max":445,"o":"m 271 -14 l 173 -14 l 173 986 l 271 986 l 271 -14 m 0 1076 l 223 1308 l 445 1076 l 322 1076 l 224 1183 l 123 1076 l 0 1076 z "},"ï":{"ha":427,"x_min":0,"x_max":359,"o":"m 229 -14 l 130 -14 l 130 986 l 229 986 l 229 -14 m 76 1198 q 129 1176 107 1198 q 150 1122 151 1154 q 129 1070 150 1092 q 76 1048 107 1048 q 22 1070 45 1048 q 0 1122 0 1092 q 23 1176 1 1154 q 76 1198 45 1198 m 284 1198 q 337 1176 315 1198 q 358 1122 359 1154 q 337 1070 358 1092 q 284 1048 315 1048 q 231 1070 253 1048 q 208 1122 208 1092 q 231 1176 210 1154 q 284 1198 253 1198 z "},"ð":{"ha":1139,"x_min":-14,"x_max":1057,"o":"m 926 404 q 867 709 960 568 q 610 882 774 849 q 306 823 445 916 q 132 566 165 731 q 191 261 98 401 q 448 87 283 121 q 753 146 613 54 q 926 404 893 239 m 876 860 q 1014 646 972 771 q 1031 382 1057 517 q 810 58 987 176 q 427 -16 635 -58 q 103 203 219 26 q 28 587 -14 380 q 219 891 66 774 q 492 999 370 1006 q 366 1048 463 1013 l 352 992 l 263 1013 l 277 1075 q 208 1091 256 1081 l 231 1192 q 302 1174 278 1180 l 318 1235 l 406 1215 l 389 1148 q 876 860 709 1043 z "},"ñ":{"ha":982,"x_min":-14,"x_max":901,"o":"m -14 484 q 122 845 -11 696 q 444 996 256 996 q 766 844 632 996 q 901 483 899 695 l 901 -15 l 805 -15 l 805 483 q 697 772 803 652 q 444 891 592 891 q 191 773 296 891 q 82 485 85 654 l 82 -15 l -14 -15 l -14 484 m 688 1216 q 564 1082 650 1103 q 418 1108 490 1061 q 345 1124 379 1133 q 310 1080 310 1114 l 199 1080 q 323 1213 238 1192 q 467 1187 397 1233 q 542 1170 507 1161 q 588 1216 574 1183 l 688 1216 z "},"ò":{"ha":1095,"x_min":-14,"x_max":1014,"o":"m 500 73 q 794 194 672 73 q 916 488 916 316 q 794 783 916 661 q 500 904 672 904 q 205 783 328 904 q 84 488 84 661 q 205 194 84 316 q 500 73 328 73 m 500 1002 q 863 851 713 1002 q 1013 488 1014 701 q 863 125 1013 276 q 500 -25 712 -25 q 137 125 288 -25 q -14 488 -14 276 q 138 851 -13 701 q 500 1002 288 1002 m 311 1329 l 425 1329 l 594 1048 l 486 1048 l 311 1329 z "},"ó":{"ha":1095,"x_min":-14,"x_max":1014,"o":"m 500 73 q 794 194 672 73 q 916 488 916 316 q 794 783 916 661 q 500 904 672 904 q 205 783 328 904 q 84 488 84 661 q 205 194 84 316 q 500 73 328 73 m 500 1002 q 863 851 713 1002 q 1013 488 1014 701 q 863 125 1013 276 q 500 -25 712 -25 q 137 125 288 -25 q -14 488 -14 276 q 138 851 -13 701 q 500 1002 288 1002 m 514 1048 l 406 1048 l 574 1329 l 688 1329 l 514 1048 z "},"ô":{"ha":1095,"x_min":-14,"x_max":1014,"o":"m 500 73 q 794 194 672 73 q 916 488 916 316 q 794 783 916 661 q 500 904 672 904 q 205 783 328 904 q 84 488 84 661 q 205 194 84 316 q 500 73 328 73 m 500 1002 q 863 851 713 1002 q 1013 488 1014 701 q 863 125 1013 276 q 500 -25 712 -25 q 137 125 288 -25 q -14 488 -14 276 q 138 851 -13 701 q 500 1002 288 1002 m 277 1076 l 500 1308 l 722 1076 l 600 1076 l 501 1183 l 400 1076 l 277 1076 z "},"õ":{"ha":1095,"x_min":-14,"x_max":1014,"o":"m 500 73 q 794 194 672 73 q 916 488 916 316 q 794 783 916 661 q 500 904 672 904 q 205 783 328 904 q 84 488 84 661 q 205 194 84 316 q 500 73 328 73 m 500 1002 q 863 851 713 1002 q 1013 488 1014 701 q 863 125 1013 276 q 500 -25 712 -25 q 137 125 288 -25 q -14 488 -14 276 q 138 851 -13 701 q 500 1002 288 1002 m 744 1216 q 620 1082 707 1103 q 475 1108 546 1061 q 401 1124 435 1133 q 366 1080 366 1114 l 256 1080 q 380 1213 294 1192 q 524 1187 454 1233 q 598 1170 563 1161 q 644 1216 630 1183 l 744 1216 z "},"ö":{"ha":1095,"x_min":-14,"x_max":1014,"o":"m 500 73 q 794 194 672 73 q 916 488 916 316 q 794 783 916 661 q 500 904 672 904 q 205 783 328 904 q 84 488 84 661 q 205 194 84 316 q 500 73 328 73 m 500 1002 q 863 851 713 1002 q 1013 488 1014 701 q 863 125 1013 276 q 500 -25 712 -25 q 137 125 288 -25 q -14 488 -14 276 q 138 851 -13 701 q 500 1002 288 1002 m 397 1198 q 449 1176 427 1198 q 471 1122 471 1154 q 449 1070 471 1092 q 397 1048 427 1048 q 343 1070 366 1048 q 321 1122 321 1092 q 343 1176 321 1154 q 397 1198 366 1198 m 605 1198 q 657 1176 635 1198 q 679 1122 680 1154 q 657 1070 679 1092 q 605 1048 635 1048 q 551 1070 574 1048 q 529 1122 529 1092 q 552 1176 530 1154 q 605 1198 574 1198 z "},"÷":{"ha":621,"x_min":-14,"x_max":539,"o":"m 539 364 l -14 364 l -14 461 l 539 461 l 539 364 m 269 621 q 321 598 299 621 q 343 545 342 576 q 321 493 343 515 q 269 471 299 471 q 215 493 237 471 q 193 545 193 515 q 215 598 193 576 q 269 621 237 621 m 271 352 q 323 330 301 352 q 345 277 345 308 q 323 224 345 246 q 271 202 301 202 q 217 224 239 202 q 195 277 195 246 q 217 330 195 308 q 271 352 239 352 z "},"ø":{"ha":1102,"x_min":-14,"x_max":1014,"o":"m 349 100 q 500 73 410 73 q 794 194 672 73 q 916 488 916 316 q 794 783 916 661 q 731 836 758 818 l 349 100 m 260 147 l 642 881 q 500 904 583 904 q 205 783 328 904 q 84 488 84 661 q 205 194 84 316 q 260 147 237 163 m 303 12 l 252 -86 l 138 -86 l 215 60 q 137 125 178 83 q -14 488 -14 276 q 138 851 -13 701 q 500 1002 288 1002 q 687 968 607 1002 l 739 1067 l 852 1067 l 776 922 q 863 851 817 897 q 1013 488 1014 701 q 863 125 1013 276 q 500 -25 712 -25 q 303 12 387 -25 z "},"ù":{"ha":982,"x_min":-14,"x_max":901,"o":"m 901 489 q 765 128 898 277 q 444 -22 631 -22 q 121 129 255 -22 q -14 490 -12 278 l -14 988 l 82 988 l 82 490 q 190 201 84 321 q 443 82 295 82 q 696 200 591 82 q 805 488 802 319 l 805 988 l 901 988 l 901 489 m 255 1329 l 369 1329 l 538 1048 l 429 1048 l 255 1329 z "},"ú":{"ha":982,"x_min":-14,"x_max":901,"o":"m 901 489 q 765 128 898 277 q 444 -22 631 -22 q 121 129 255 -22 q -14 490 -12 278 l -14 988 l 82 988 l 82 490 q 190 201 84 321 q 443 82 295 82 q 696 200 591 82 q 805 488 802 319 l 805 988 l 901 988 l 901 489 m 458 1048 l 349 1048 l 518 1329 l 632 1329 l 458 1048 z "},"û":{"ha":982,"x_min":-14,"x_max":901,"o":"m 901 489 q 765 128 898 277 q 444 -22 631 -22 q 121 129 255 -22 q -14 490 -12 278 l -14 988 l 82 988 l 82 490 q 190 201 84 321 q 443 82 295 82 q 696 200 591 82 q 805 488 802 319 l 805 988 l 901 988 l 901 489 m 221 1076 l 444 1308 l 666 1076 l 543 1076 l 445 1183 l 344 1076 l 221 1076 z "},"ü":{"ha":982,"x_min":-14,"x_max":901,"o":"m 901 489 q 765 128 898 277 q 444 -22 631 -22 q 121 129 255 -22 q -14 490 -12 278 l -14 988 l 82 988 l 82 490 q 190 201 84 321 q 443 82 295 82 q 696 200 591 82 q 805 488 802 319 l 805 988 l 901 988 l 901 489 m 340 1225 q 393 1203 371 1225 q 414 1149 415 1181 q 393 1097 414 1119 q 340 1075 371 1075 q 287 1097 309 1075 q 264 1149 264 1119 q 287 1203 265 1181 q 340 1225 309 1225 m 549 1225 q 601 1203 579 1225 q 623 1149 623 1181 q 601 1097 623 1119 q 549 1075 579 1075 q 495 1097 517 1075 q 473 1149 473 1119 q 495 1203 473 1181 q 549 1225 517 1225 z "},"ý":{"ha":912,"x_min":-14,"x_max":831,"o":"m 831 987 l 831 175 l 831 64 q 705 -269 829 -130 q 408 -408 581 -408 q 153 -309 267 -408 q 3 -58 39 -212 l -7 -33 l 96 -33 l 102 -47 q 220 -232 135 -162 q 408 -301 304 -301 q 635 -195 538 -301 q 732 64 730 -87 l 731 153 q 610 45 701 102 q 409 -12 516 -12 q 111 127 235 -12 q -14 461 -12 266 l -14 987 l 85 987 l 84 462 q 177 199 81 330 q 409 88 277 88 q 633 187 534 88 q 730 436 728 292 l 731 988 l 831 987 m 422 1076 l 315 1076 l 484 1356 l 597 1356 l 422 1076 z "},"þ":{"ha":1095,"x_min":-14,"x_max":1014,"o":"m 795 194 q 916 488 916 316 q 795 783 916 661 q 500 904 673 904 q 206 783 328 904 q 85 488 85 661 q 206 194 85 316 q 500 73 328 73 q 795 194 673 73 m -13 1173 l -13 1179 l 81 1179 l 81 789 q 137 851 89 802 q 500 1002 288 1002 q 863 851 712 1002 q 1014 488 1013 701 q 863 125 1014 276 q 500 -25 713 -25 q 138 125 288 -25 q 79 189 87 176 l 79 -239 l -14 -239 l -14 1173 l -13 1173 z "},"ÿ":{"ha":912,"x_min":-14,"x_max":831,"o":"m 831 987 l 831 175 l 831 64 q 705 -269 829 -130 q 408 -408 581 -408 q 153 -309 267 -408 q 3 -58 39 -212 l -7 -33 l 96 -33 l 102 -47 q 220 -232 135 -162 q 408 -301 304 -301 q 635 -195 538 -301 q 732 64 730 -87 l 731 153 q 610 45 701 102 q 409 -12 516 -12 q 111 127 235 -12 q -14 461 -12 266 l -14 987 l 85 987 l 84 462 q 177 199 81 330 q 409 88 277 88 q 633 187 534 88 q 730 436 728 292 l 731 988 l 831 987 m 305 1225 q 358 1203 336 1225 q 379 1149 380 1181 q 358 1097 379 1119 q 305 1075 336 1075 q 252 1097 274 1075 q 229 1149 229 1119 q 252 1203 231 1181 q 305 1225 274 1225 m 513 1225 q 567 1203 545 1225 q 587 1149 589 1181 q 566 1097 587 1119 q 513 1075 545 1075 q 460 1097 482 1075 q 437 1149 437 1119 q 460 1203 439 1181 q 513 1225 482 1225 z "},"ı":{"ha":166,"x_min":-14,"x_max":85,"o":"m 85 -14 l -14 -14 l -14 986 l 85 986 l 85 -14 z "},"ˆ":{"ha":513,"x_min":-32,"x_max":413,"o":"m -32 1076 l 191 1308 l 413 1076 l 290 1076 l 192 1183 l 91 1076 l -32 1076 z "},"ˇ":{"ha":513,"x_min":-32,"x_max":413,"o":"m 413 1310 l 190 1077 l -32 1310 l 91 1310 l 189 1202 l 290 1310 l 413 1310 z "},"ˉ":{"ha":484,"x_min":-14,"x_max":403,"o":"m 403 1076 l -14 1076 l -14 1173 l 403 1173 l 403 1076 z "},"˘":{"ha":438,"x_min":-16,"x_max":340,"o":"m 340 1236 q 303 1145 330 1179 q 191 1078 260 1088 q 57 1109 117 1066 q -16 1236 0 1151 l 76 1236 q 111 1183 87 1200 q 175 1168 140 1162 q 247 1236 227 1179 l 340 1236 z "},"˙":{"ha":218,"x_min":-14,"x_max":137,"o":"m 62 1225 q 115 1203 93 1225 q 136 1150 137 1181 q 115 1098 136 1120 q 62 1076 93 1076 q 9 1098 31 1076 q -14 1150 -14 1120 q 9 1204 -13 1182 q 62 1225 31 1225 z "},"˚":{"ha":250,"x_min":-14,"x_max":168,"o":"m 77 1258 q 141 1231 114 1258 q 168 1167 168 1204 q 141 1103 168 1130 q 77 1077 115 1077 q 14 1103 40 1077 q -13 1167 -13 1130 q 13 1231 -14 1204 q 77 1258 39 1258 m 75 1201 q 54 1192 62 1201 q 45 1168 45 1183 q 54 1146 44 1155 q 77 1137 64 1137 q 100 1146 91 1137 q 111 1171 109 1156 q 100 1192 111 1182 q 75 1201 90 1201 z "},"˛":{"ha":279,"x_min":-14,"x_max":198,"o":"m 4 -186 q 60 -173 38 -186 q 82 -149 82 -161 q 60 -123 82 -136 q 4 -111 38 -111 l -14 -111 l -14 14 l 81 14 l 81 -25 q 161 -67 124 -33 q 198 -150 198 -103 q 146 -243 198 -205 q 28 -281 98 -281 q -14 -277 14 -281 l -14 -186 l 4 -186 z "},"˜":{"ha":556,"x_min":-19,"x_max":469,"o":"m 469 1216 q 345 1082 432 1103 q 200 1108 271 1061 q 126 1124 161 1133 q 92 1080 92 1114 l -19 1080 q 105 1213 20 1192 q 249 1187 179 1233 q 323 1170 288 1161 q 370 1216 355 1183 l 469 1216 z "},"˝":{"ha":469,"x_min":-24,"x_max":376,"o":"m 227 1076 l 118 1076 l 263 1311 l 376 1311 l 227 1076 m 84 1076 l -24 1076 l 121 1311 l 234 1311 l 84 1076 z "},"–":{"ha":68,"x_min":0,"x_max":0,"o":""},"—":{"ha":68,"x_min":0,"x_max":0,"o":""},"‘":{"ha":302,"x_min":-24,"x_max":210,"o":"m -24 987 l 89 987 l 210 787 l 102 787 l -24 987 z "},"’":{"ha":302,"x_min":-24,"x_max":210,"o":"m 84 787 l -24 787 l 97 987 l 210 987 l 84 787 z "},"‚":{"ha":302,"x_min":-24,"x_max":210,"o":"m 84 -80 l -24 -80 l 97 121 l 210 121 l 84 -80 z "},"“":{"ha":315,"x_min":-14,"x_max":233,"o":"m 87 659 l -14 659 l -14 985 l 87 985 l 87 659 m 233 659 l 132 659 l 132 985 l 233 985 l 233 659 z "},"”":{"ha":315,"x_min":-14,"x_max":233,"o":"m 87 659 l -14 659 l -14 985 l 87 985 l 87 659 m 233 659 l 132 659 l 132 985 l 233 985 l 233 659 z "},"„":{"ha":315,"x_min":-14,"x_max":233,"o":"m 87 -209 l -14 -209 l -14 118 l 87 118 l 87 -209 m 233 -209 l 132 -209 l 132 118 l 233 118 l 233 -209 z "},"†":{"ha":68,"x_min":0,"x_max":0,"o":""},"‡":{"ha":68,"x_min":0,"x_max":0,"o":""},"•":{"ha":296,"x_min":-14,"x_max":214,"o":"m 100 628 q 181 594 147 628 q 214 514 214 561 q 180 434 214 467 q 100 400 146 400 q 20 434 53 400 q -14 514 -14 467 q 20 594 -14 561 q 100 628 54 628 z "},"…":{"ha":68,"x_min":0,"x_max":0,"o":""},"‹":{"ha":573,"x_min":-29,"x_max":476,"o":"m 475 239 l -29 500 l 476 763 l 475 654 q 292 559 431 631 q 180 501 169 495 q 476 348 229 476 l 475 239 z "},"›":{"ha":574,"x_min":-14,"x_max":493,"o":"m -13 348 q 283 501 234 476 q 170 559 294 495 q -14 654 32 631 l -14 763 l 493 500 l -14 239 l -13 348 z "},"⁄":{"ha":689,"x_min":-22,"x_max":599,"o":"m 79 -14 l -22 -14 l 497 985 l 599 985 l 79 -14 z "},"₣":{"ha":956,"x_min":-14,"x_max":875,"o":"m 107 193 l 108 985 l 875 985 l 874 886 l 873 886 l 873 885 l 205 885 l 205 361 l 874 361 l 875 262 l 206 262 l 205 193 l 349 193 l 350 96 l 206 96 l 206 -14 l 108 -14 l 108 96 l -13 96 l -14 193 l 107 193 z "},"₤":{"ha":710,"x_min":-15,"x_max":627,"o":"m 79 549 l 73 559 q 52 594 60 578 q 16 669 28 634 q 26 838 -15 758 q 182 973 75 932 q 379 990 275 1008 q 545 916 479 974 q 627 756 612 857 l 525 756 q 463 851 510 817 q 363 890 420 880 q 223 879 290 902 q 117 792 148 853 q 113 700 96 749 q 180 582 126 662 l 202 549 q 201 549 204 546 l 459 549 l 459 452 l 257 452 q 261 440 255 456 q 273 400 271 415 l 459 400 l 459 303 l 279 303 q 271 267 278 291 q 216 152 252 201 q 359 127 245 157 l 380 121 l 402 116 q 450 106 427 111 q 585 116 513 94 l 616 20 q 430 6 519 -12 q 378 18 406 10 l 355 24 l 334 29 q 196 41 249 51 q 92 -27 143 31 l 18 43 l 33 58 l 35 58 l 35 59 l 37 60 l 62 90 q 173 294 138 177 q 176 303 176 307 l 2 303 l 2 400 l 168 400 q 163 410 169 397 q 142 452 155 429 l 2 452 l 2 549 l 79 549 z "},"₧":{"ha":68,"x_min":0,"x_max":0,"o":""},"€":{"ha":1279,"x_min":-18,"x_max":1193,"o":"m 315 345 q 410 201 338 273 q 696 83 528 83 q 935 161 829 83 q 1084 369 1040 237 l 1190 369 q 1006 85 1140 189 q 696 -20 869 -20 q 338 128 486 -20 q 208 345 239 228 l -18 345 l 11 441 l 191 441 q 189 488 189 456 q 190 528 189 515 l -18 528 l 10 624 l 205 624 q 337 846 236 744 q 697 995 487 995 q 1010 886 873 995 q 1193 596 1147 780 l 1086 596 q 939 811 1045 731 q 697 892 832 892 q 410 774 529 892 q 313 624 336 699 l 551 624 l 522 528 l 294 528 q 292 488 292 514 q 294 441 292 458 l 551 441 l 522 345 l 315 345 z "},"№":{"ha":68,"x_min":0,"x_max":0,"o":""},"™":{"ha":894,"x_min":0,"x_max":826,"o":"m 361 908 l 213 908 l 213 474 l 147 474 l 147 908 l 0 908 l 0 974 l 361 974 l 361 908 m 826 983 l 826 481 l 765 481 l 766 751 l 618 467 l 463 749 l 463 481 l 403 481 l 403 984 l 616 587 l 826 983 z "},"∂":{"ha":68,"x_min":0,"x_max":0,"o":""},"∆":{"ha":68,"x_min":0,"x_max":0,"o":""},"∏":{"ha":68,"x_min":0,"x_max":0,"o":""},"∑":{"ha":743,"x_min":0,"x_max":0,"o":""},"−":{"ha":621,"x_min":-14,"x_max":539,"o":"m 539 364 l -14 364 l -14 461 l 539 461 l 539 364 z "},"√":{"ha":1090,"x_min":0,"x_max":0,"o":""},"∫":{"ha":68,"x_min":0,"x_max":0,"o":""},"≤":{"ha":635,"x_min":0,"x_max":0,"o":""},"≥":{"ha":353,"x_min":0,"x_max":0,"o":""},"œ":{"ha":2002,"x_min":-14,"x_max":1909,"o":"m 500 73 q 794 194 672 73 q 916 488 916 316 q 794 783 916 661 q 500 904 672 904 q 205 783 328 904 q 84 488 84 661 q 205 194 84 316 q 500 73 328 73 m 1764 710 q 1656 825 1731 771 q 1420 900 1552 900 q 1141 790 1257 900 q 1076 710 1095 747 l 1764 710 m 964 264 q 863 125 939 202 q 500 -25 712 -25 q 137 125 288 -25 q -14 488 -14 276 q 138 851 -13 701 q 500 1002 288 1002 q 863 851 713 1002 q 965 712 940 774 q 1063 844 989 770 q 1420 991 1211 991 q 1731 884 1594 991 q 1907 624 1867 778 l 1035 623 q 1011 537 1018 581 q 1013 488 1013 514 q 1011 438 1013 462 q 1131 198 1029 300 q 1420 75 1251 79 q 1661 158 1554 79 q 1810 366 1766 235 l 1909 366 q 1727 88 1862 191 q 1420 -17 1592 -17 q 1063 131 1211 -17 q 964 264 989 205 z "},"Œ":{"ha":1308,"x_min":-14,"x_max":1226,"o":"m 496 1005 l 496 1006 l 1226 1006 l 1226 901 l 818 901 q 869 854 827 896 q 1021 488 1020 702 q 1009 374 1020 420 l 1226 374 l 1226 270 l 974 270 q 869 123 939 194 q 820 76 828 81 l 1226 76 l 1225 -28 l 500 -28 q 138 123 290 -28 q -13 488 -13 275 q 138 854 -14 702 q 504 1005 290 1005 l 496 1005 m 504 72 q 798 194 677 72 q 920 488 920 315 q 798 783 920 661 q 504 905 677 905 q 210 783 331 905 q 87 488 87 661 q 209 194 87 315 q 504 72 331 72 z "}}}
